{"glyphs":{"0":{"ha":868,"x_min":56,"x_max":813,"o":"m 276 742 q 246 693 276 742 q 217 486 217 644 q 276 230 217 328 q 433 132 335 132 q 592 230 532 132 q 651 486 651 328 q 592 742 651 644 q 433 840 532 840 q 276 742 335 840 m 160 123 q 108 192 160 123 q 56 486 56 261 q 160 849 56 711 q 433 988 264 988 q 708 849 604 988 q 813 486 813 711 q 708 123 813 261 q 433 -15 604 -15 q 160 123 264 -15 z "},"1":{"ha":657,"x_min":104,"x_max":492,"o":"m 104 744 l 104 900 l 492 988 l 492 0 l 331 0 l 331 807 l 104 744 z "},"2":{"ha":839,"x_min":28,"x_max":769,"o":"m 28 0 l 478 474 q 588 689 588 592 q 547 796 588 750 q 431 842 506 842 q 295 783 347 842 q 243 628 243 725 l 81 628 q 176 888 81 786 q 433 989 271 989 q 617 941 540 989 q 726 826 693 893 q 758 686 758 760 q 624 422 758 550 l 347 153 l 769 153 l 769 0 l 28 0 z "},"3":{"ha":800,"x_min":76,"x_max":746,"o":"m 413 -17 q 169 69 261 -17 q 76 278 76 154 l 242 278 q 291 167 242 210 q 415 125 340 125 q 535 165 490 125 q 581 278 581 206 q 522 399 581 356 q 364 442 464 442 l 364 564 q 501 608 450 564 q 553 717 553 651 q 519 813 553 776 q 421 849 485 849 q 315 810 358 849 q 272 714 272 772 l 118 714 q 202 911 118 835 q 419 988 286 988 q 637 912 556 988 q 718 725 718 836 q 674 597 718 653 q 553 508 631 540 q 746 261 746 446 q 654 60 746 136 q 413 -17 563 -17 z "},"4":{"ha":874,"x_min":25,"x_max":825,"o":"m 514 317 l 514 678 l 265 317 l 514 317 m 672 186 l 672 0 l 504 0 l 504 186 l 25 186 l 574 972 l 672 972 l 672 328 l 825 328 l 825 186 l 672 186 z "},"5":{"ha":828,"x_min":49,"x_max":772,"o":"m 772 317 q 667 71 772 157 q 411 -15 563 -15 q 49 157 185 -15 l 144 275 q 256 176 189 215 q 392 138 324 138 q 543 188 489 138 q 597 326 597 238 q 538 463 597 413 q 392 514 479 514 q 132 436 257 514 l 264 972 l 764 972 l 764 828 l 388 828 l 324 604 q 481 640 394 640 q 688 551 604 640 q 772 317 772 461 z "},"6":{"ha":851,"x_min":69,"x_max":783,"o":"m 286 474 q 258 445 286 474 q 231 328 231 417 q 286 183 231 239 q 426 128 342 128 q 567 183 511 128 q 622 328 622 239 q 567 474 622 417 q 426 532 511 532 q 286 474 342 532 m 460 971 l 668 971 l 389 626 q 490 644 426 644 q 696 554 608 644 q 783 328 783 464 q 682 77 783 171 q 426 -17 581 -17 q 171 77 272 -17 q 69 328 69 171 q 151 557 69 449 l 460 971 z "},"7":{"ha":772,"x_min":42,"x_max":767,"o":"m 42 818 l 42 972 l 767 972 l 300 0 l 125 0 l 524 818 l 42 818 z "},"8":{"ha":803,"x_min":75,"x_max":729,"o":"m 110 738 q 194 918 110 847 q 401 989 278 989 q 610 918 525 989 q 694 738 694 847 q 550 517 694 582 q 680 420 631 485 q 729 264 729 356 q 633 64 729 144 q 401 -17 538 -17 q 170 64 265 -17 q 75 264 75 144 q 124 420 75 356 q 253 517 172 485 q 148 603 186 547 q 110 738 110 660 m 265 719 q 305 622 265 660 q 401 583 344 583 q 499 622 458 583 q 539 719 539 660 q 500 820 539 781 q 401 860 461 860 q 303 820 342 860 q 265 719 265 781 m 236 286 q 285 166 236 210 q 401 122 333 122 q 519 167 469 122 q 568 286 568 211 q 517 402 568 354 q 401 450 467 450 q 286 402 336 450 q 236 286 236 354 z "},"9":{"ha":851,"x_min":69,"x_max":783,"o":"m 567 498 q 594 527 567 498 q 622 644 622 556 q 567 789 622 733 q 426 844 511 844 q 286 789 342 844 q 231 644 231 733 q 286 498 231 556 q 426 440 342 440 q 567 498 511 440 m 392 1 l 183 1 l 461 346 q 363 328 425 328 q 157 418 244 328 q 69 644 69 508 q 171 895 69 801 q 426 989 272 989 q 682 895 581 989 q 783 644 783 801 q 700 415 783 525 l 392 1 z "}," ":{"ha":417,"x_min":0,"x_max":0,"o":""},"!":{"ha":440,"x_min":122,"x_max":319,"o":"m 126 972 l 314 972 l 279 294 l 161 294 l 126 972 m 122 68 q 151 134 122 107 q 221 161 179 161 q 291 134 263 161 q 319 68 319 107 q 291 1 319 28 q 221 -26 263 -26 q 151 1 179 -26 q 122 68 122 28 z "},"\"":{"ha":675,"x_min":100,"x_max":603,"o":"m 167 972 l 335 972 l 201 544 l 100 544 l 167 972 m 433 972 l 603 972 l 469 544 l 368 544 l 433 972 z "},"#":{"ha":875,"x_min":49,"x_max":826,"o":"m 501 381 l 554 599 l 375 599 l 322 381 l 501 381 m 333 972 l 469 972 l 407 717 l 579 717 l 642 972 l 778 972 l 715 717 l 826 717 l 826 596 l 686 596 l 635 383 l 771 383 l 771 263 l 606 263 l 542 0 l 406 0 l 469 263 l 296 263 l 233 0 l 97 0 l 161 263 l 49 263 l 49 383 l 190 383 l 242 596 l 104 596 l 104 717 l 271 717 l 333 972 z "},"$":{"ha":828,"x_min":64,"x_max":757,"o":"m 617 700 q 426 850 539 850 q 286 735 286 850 q 299 685 286 708 q 325 649 311 663 q 374 617 339 635 q 427 592 410 599 q 493 567 444 585 q 511 560 506 563 q 757 267 757 469 q 688 76 757 150 q 490 -11 618 3 l 492 -156 l 361 -156 l 364 -8 q 184 78 264 10 q 64 246 104 147 l 190 328 q 297 178 239 228 q 438 128 356 128 q 585 261 585 128 q 572 317 585 292 q 542 360 560 343 q 492 396 525 378 q 435 424 460 414 q 368 450 410 435 q 117 739 117 543 q 186 897 117 829 q 364 982 256 965 l 361 1136 l 492 1136 l 490 981 q 647 908 583 964 q 744 779 710 853 l 617 700 z "},"%":{"ha":1136,"x_min":42,"x_max":1094,"o":"m 108 588 q 75 622 108 588 q 42 756 42 656 q 108 924 42 856 q 278 992 175 992 q 448 923 381 992 q 515 756 515 854 q 448 588 515 657 q 278 519 381 519 q 108 588 175 519 m 199 838 q 184 821 199 838 q 169 756 169 804 q 199 673 169 707 q 278 639 229 639 q 356 673 326 639 q 386 756 386 707 q 356 838 386 804 q 278 871 326 871 q 199 838 229 871 m 689 49 q 656 83 689 49 q 622 217 622 117 q 689 385 622 317 q 858 453 756 453 q 1028 385 961 453 q 1094 217 1094 317 q 1028 49 1094 117 q 858 -19 961 -19 q 689 49 756 -19 m 780 299 q 765 282 780 299 q 750 217 750 265 q 780 135 750 168 q 858 101 810 101 q 937 135 907 101 q 967 217 967 168 q 937 299 967 265 q 858 333 907 333 q 780 299 810 333 m 831 972 l 981 972 l 306 0 l 157 0 l 831 972 z "},"&":{"ha":981,"x_min":56,"x_max":954,"o":"m 415 604 q 539 758 539 683 q 509 834 539 804 q 429 864 479 864 q 349 835 378 864 q 319 760 319 806 q 321 743 319 751 q 326 726 322 735 q 333 710 329 717 q 343 692 336 703 q 354 676 350 682 q 368 658 358 669 q 382 642 378 647 q 399 623 386 636 q 415 604 411 610 m 492 518 l 703 282 q 839 453 764 347 l 947 378 q 789 185 861 258 l 954 0 l 778 0 l 692 97 q 378 -15 544 -15 q 150 60 244 -15 q 56 257 56 135 q 76 363 56 315 q 138 444 97 410 q 212 500 178 479 q 294 543 246 521 q 274 565 292 546 q 252 590 257 585 q 232 614 247 596 q 211 642 217 632 q 195 669 206 651 q 180 700 185 686 q 172 731 175 714 q 168 765 168 749 q 241 927 168 863 q 431 992 314 992 q 614 925 546 992 q 682 767 682 858 q 635 639 682 696 q 492 518 589 582 m 375 453 q 256 372 297 413 q 214 268 214 331 q 265 159 214 201 q 394 117 315 117 q 604 194 497 117 l 375 453 z "},"'":{"ha":407,"x_min":100,"x_max":335,"o":"m 167 972 l 335 972 l 201 544 l 100 544 l 167 972 z "},"(":{"ha":447,"x_min":113,"x_max":415,"o":"m 276 1083 l 415 1083 q 271 403 271 774 q 415 -278 271 32 l 276 -278 q 113 403 113 29 q 276 1083 113 776 z "},")":{"ha":447,"x_min":33,"x_max":335,"o":"m 172 -278 l 33 -278 q 178 403 178 32 q 33 1083 178 774 l 172 1083 q 335 403 335 779 q 172 -278 335 26 z "},"*":{"ha":822,"x_min":111,"x_max":711,"o":"m 343 972 l 479 972 l 458 746 l 669 835 l 711 706 l 488 654 l 639 482 l 528 403 l 411 599 l 294 403 l 183 482 l 335 654 l 111 706 l 153 835 l 364 746 l 343 972 z "},"+":{"ha":886,"x_min":90,"x_max":797,"o":"m 364 717 l 522 717 l 522 436 l 797 436 l 797 289 l 522 289 l 522 7 l 364 7 l 364 289 l 90 289 l 90 436 l 364 436 l 364 717 z "},",":{"ha":436,"x_min":68,"x_max":342,"o":"m 190 153 l 342 110 l 179 -237 l 68 -207 l 190 153 z "},"-":{"ha":299,"x_min":7,"x_max":292,"o":"m 7 263 l 7 397 l 292 397 l 292 263 l 7 263 z "},".":{"ha":429,"x_min":117,"x_max":313,"o":"m 144 2 q 131 16 144 2 q 117 71 117 31 q 144 140 117 111 q 214 168 172 168 q 284 140 256 168 q 313 71 313 111 q 284 2 313 31 q 214 -26 256 -26 q 144 2 172 -26 z "},"/":{"ha":767,"x_min":21,"x_max":747,"o":"m 599 972 l 747 972 l 172 -208 l 21 -208 l 599 972 z "},":":{"ha":429,"x_min":117,"x_max":313,"o":"m 144 2 q 131 16 144 2 q 117 71 117 31 q 144 140 117 111 q 214 168 172 168 q 284 140 256 168 q 313 71 313 111 q 284 2 313 31 q 214 -26 256 -26 q 144 2 172 -26 m 144 527 q 131 541 144 527 q 117 596 117 556 q 144 665 117 636 q 214 693 172 693 q 284 665 256 693 q 313 596 313 636 q 284 527 313 556 q 214 499 256 499 q 144 527 172 499 z "},";":{"ha":493,"x_min":81,"x_max":367,"o":"m 198 523 q 184 537 198 523 q 169 592 169 551 q 198 660 169 632 q 268 689 226 689 q 338 660 310 689 q 367 592 367 632 q 338 523 367 551 q 268 494 310 494 q 198 523 226 494 m 203 153 l 353 110 l 192 -237 l 81 -207 l 203 153 z "},"<":{"ha":889,"x_min":90,"x_max":799,"o":"m 319 367 l 799 161 l 799 13 l 90 314 l 90 408 l 799 710 l 799 561 l 319 367 z "},"=":{"ha":860,"x_min":85,"x_max":775,"o":"m 85 164 l 85 299 l 775 299 l 775 164 l 85 164 m 85 403 l 85 539 l 775 539 l 775 403 l 85 403 z "},">":{"ha":889,"x_min":90,"x_max":799,"o":"m 569 356 l 90 561 l 90 710 l 799 408 l 799 314 l 90 13 l 90 161 l 569 356 z "},"?":{"ha":813,"x_min":76,"x_max":733,"o":"m 302 1 q 288 15 302 1 q 274 67 274 29 q 302 131 274 104 q 372 158 331 158 q 442 131 414 158 q 469 67 469 104 q 442 1 469 29 q 372 -26 414 -26 q 302 1 331 -26 m 581 694 q 531 815 581 772 q 394 858 481 858 q 188 740 265 858 l 76 822 q 216 949 140 907 q 408 992 292 992 q 639 908 544 992 q 733 694 733 824 q 644 495 733 576 q 436 399 556 414 l 428 253 l 311 253 l 283 499 l 322 499 q 510 559 440 499 q 581 694 581 619 z "},"@":{"ha":1069,"x_min":36,"x_max":1035,"o":"m 397 444 q 490 332 397 332 q 586 378 543 332 q 629 511 629 424 q 601 599 629 565 q 531 632 574 632 q 438 577 478 632 q 397 444 397 522 m 36 444 q 190 838 36 678 q 576 999 343 999 q 907 860 779 999 q 1035 542 1035 721 q 950 276 1035 372 q 767 179 865 179 q 671 216 710 179 q 625 308 632 253 q 456 219 564 219 q 320 278 374 219 q 267 438 267 338 q 347 654 267 572 q 521 736 426 736 q 660 632 619 736 l 672 722 l 808 722 l 747 388 q 744 351 744 368 q 753 313 744 325 q 786 300 763 300 q 867 366 824 300 q 910 542 910 432 q 822 788 910 686 q 576 889 735 889 q 274 763 389 889 q 160 444 160 636 q 247 181 160 278 q 494 83 335 83 q 785 149 689 83 l 858 50 q 507 -28 725 -28 q 160 102 283 -28 q 36 444 36 232 z "},"A":{"ha":958,"x_min":3,"x_max":956,"o":"m 347 389 l 611 389 l 479 697 l 347 389 m 300 250 l 189 0 l 3 0 l 479 1026 l 956 0 l 769 0 l 658 250 l 300 250 z "},"B":{"ha":833,"x_min":108,"x_max":768,"o":"m 272 454 l 272 136 l 408 136 q 547 177 494 136 q 600 297 600 218 q 547 414 600 374 q 408 454 494 454 l 272 454 m 272 836 l 272 582 l 390 582 q 502 616 460 582 q 544 710 544 650 q 502 803 544 769 q 390 836 460 836 l 272 836 m 108 972 l 401 972 q 628 910 544 972 q 713 728 713 849 q 561 526 713 583 q 712 440 656 501 q 768 281 768 378 q 674 70 768 140 q 418 0 579 0 l 108 0 l 108 972 z "},"C":{"ha":960,"x_min":53,"x_max":867,"o":"m 328 733 q 279 685 328 733 q 231 486 231 638 q 328 239 231 335 q 563 143 425 143 q 867 281 751 143 l 867 86 q 557 -17 743 -17 q 197 125 340 -17 q 53 486 53 267 q 197 847 53 706 q 557 989 340 989 q 867 886 743 989 l 867 692 q 563 829 751 829 q 328 733 425 829 z "},"D":{"ha":974,"x_min":108,"x_max":922,"o":"m 422 0 l 108 0 l 108 972 l 422 972 q 784 839 646 972 q 922 486 922 706 q 784 133 922 267 q 422 0 646 0 m 275 154 l 418 154 q 660 240 567 154 q 753 486 753 326 q 660 732 753 646 q 418 818 567 818 l 275 818 l 275 154 z "},"E":{"ha":793,"x_min":108,"x_max":700,"o":"m 269 450 l 269 144 l 700 144 l 700 0 l 108 0 l 108 972 l 700 972 l 700 828 l 269 828 l 269 592 l 672 592 l 672 450 l 269 450 z "},"F":{"ha":724,"x_min":108,"x_max":644,"o":"m 269 439 l 269 0 l 108 0 l 108 972 l 644 972 l 644 825 l 269 825 l 269 582 l 631 582 l 631 439 l 269 439 z "},"G":{"ha":1097,"x_min":53,"x_max":1044,"o":"m 571 369 l 571 508 l 1039 508 q 915 133 1044 286 q 561 -21 786 -21 q 197 122 340 -21 q 53 486 53 264 q 197 849 53 708 q 564 989 342 989 q 982 774 844 989 l 849 683 q 564 836 758 836 q 322 740 419 836 q 225 486 225 643 q 322 231 225 329 q 564 132 418 132 q 763 197 688 132 q 868 369 839 263 l 571 369 z "},"H":{"ha":1032,"x_min":108,"x_max":925,"o":"m 108 972 l 272 972 l 272 597 l 761 597 l 761 972 l 925 972 l 925 0 l 761 0 l 761 446 l 272 446 l 272 0 l 108 0 l 108 972 z "},"I":{"ha":382,"x_min":108,"x_max":275,"o":"m 108 972 l 275 972 l 275 0 l 108 0 l 108 972 z "},"J":{"ha":383,"x_min":-183,"x_max":276,"o":"m -96 -108 q 15 -156 -60 -156 q 80 -126 51 -156 q 108 -36 108 -97 l 108 972 l 276 972 l 276 -81 q 206 -258 276 -199 q 19 -317 136 -317 q -96 -294 -40 -317 q -183 -243 -151 -271 l -96 -108 z "},"K":{"ha":860,"x_min":108,"x_max":856,"o":"m 638 972 l 836 972 l 425 517 l 856 0 l 654 0 l 276 454 l 276 0 l 108 0 l 108 972 l 276 972 l 276 567 l 638 972 z "},"L":{"ha":668,"x_min":108,"x_max":658,"o":"m 108 972 l 272 972 l 272 147 l 658 147 l 658 0 l 108 0 l 108 972 z "},"M":{"ha":1169,"x_min":53,"x_max":1118,"o":"m 289 592 l 222 0 l 53 0 l 186 1021 l 585 361 l 985 1021 l 1118 0 l 947 0 l 881 590 l 585 90 l 289 592 z "},"N":{"ha":1086,"x_min":108,"x_max":979,"o":"m 818 972 l 979 972 l 979 -49 l 269 643 l 269 0 l 108 0 l 108 1021 l 818 328 l 818 972 z "},"O":{"ha":1114,"x_min":53,"x_max":1063,"o":"m 319 734 q 273 685 319 734 q 226 486 226 636 q 319 238 226 336 q 557 140 413 140 q 794 238 701 140 q 888 486 888 336 q 795 734 888 636 q 557 832 703 832 q 319 734 413 832 m 53 486 q 197 846 53 703 q 557 989 340 989 q 919 847 775 989 q 1063 486 1063 704 q 919 124 1063 268 q 557 -21 775 -21 q 196 124 339 -21 q 53 486 53 268 z "},"P":{"ha":803,"x_min":108,"x_max":750,"o":"m 272 513 l 401 513 q 538 553 488 513 q 589 669 589 593 q 538 787 589 746 q 401 828 488 828 l 272 828 l 272 513 m 272 368 l 272 0 l 108 0 l 108 972 l 401 972 q 655 890 560 972 q 750 669 750 808 q 656 449 750 531 q 401 368 561 368 l 272 368 z "},"Q":{"ha":1138,"x_min":53,"x_max":1140,"o":"m 53 486 q 197 846 53 703 q 558 989 342 989 q 919 847 776 989 q 1063 486 1063 704 q 958 168 1063 306 l 1140 -7 l 947 -7 l 864 75 q 558 -21 733 -21 q 197 124 340 -21 q 53 486 53 268 m 514 417 l 703 417 l 844 279 q 899 475 899 364 q 803 730 899 628 q 558 832 708 832 q 320 734 414 832 q 226 486 226 636 q 324 233 226 332 q 567 133 421 133 q 751 185 672 133 l 514 417 z "},"R":{"ha":826,"x_min":108,"x_max":817,"o":"m 272 503 l 401 503 q 538 546 488 503 q 589 667 589 589 q 538 788 589 744 q 401 831 488 831 l 272 831 l 272 503 m 272 368 l 272 0 l 108 0 l 108 972 l 408 972 q 663 890 567 972 q 758 669 758 807 q 701 490 758 564 q 542 386 644 417 l 817 0 l 618 0 l 372 368 l 272 368 z "},"S":{"ha":804,"x_min":53,"x_max":744,"o":"m 178 328 q 285 178 226 228 q 425 128 343 128 q 535 162 497 128 q 572 260 572 196 q 559 318 572 292 q 529 361 546 344 q 478 397 513 378 q 422 424 444 415 q 356 450 399 433 q 104 735 104 543 q 190 919 104 849 q 410 989 276 989 q 615 926 532 989 q 732 779 699 864 l 604 700 q 524 804 568 767 q 415 842 481 842 q 313 810 350 842 q 275 726 275 779 q 292 673 275 697 q 346 627 308 649 q 413 593 383 606 q 499 560 442 581 q 744 267 744 471 q 659 56 744 132 q 419 -21 574 -21 q 197 52 296 -21 q 53 246 99 125 l 178 328 z "},"T":{"ha":699,"x_min":11,"x_max":689,"o":"m 11 821 l 11 972 l 689 972 l 689 821 l 432 821 l 432 0 l 267 0 l 267 821 l 11 821 z "},"U":{"ha":911,"x_min":100,"x_max":811,"o":"m 100 972 l 265 972 l 265 326 q 315 181 265 235 q 456 126 364 126 q 597 181 547 126 q 646 326 646 235 l 646 972 l 811 972 l 811 319 q 713 68 811 161 q 456 -25 614 -25 q 199 68 297 -25 q 100 319 100 161 l 100 972 z "},"V":{"ha":958,"x_min":3,"x_max":956,"o":"m 479 289 l 765 972 l 956 972 l 479 -54 l 3 972 l 193 972 l 479 289 z "},"W":{"ha":1417,"x_min":11,"x_max":1406,"o":"m 992 310 l 1215 972 l 1406 972 l 1008 -53 l 708 636 l 408 -53 l 11 972 l 201 972 l 425 310 l 708 1021 l 992 310 z "},"X":{"ha":843,"x_min":11,"x_max":833,"o":"m 613 972 l 813 972 l 518 506 l 833 0 l 633 0 l 425 374 l 210 0 l 11 0 l 333 506 l 44 972 l 244 972 l 426 644 l 613 972 z "},"Y":{"ha":833,"x_min":3,"x_max":831,"o":"m 643 972 l 831 972 l 500 410 l 500 0 l 333 0 l 333 410 l 3 972 l 192 972 l 417 556 l 643 972 z "},"Z":{"ha":799,"x_min":17,"x_max":775,"o":"m 61 821 l 61 972 l 775 972 l 279 147 l 738 147 l 738 0 l 17 0 l 510 821 l 61 821 z "},"[":{"ha":451,"x_min":133,"x_max":424,"o":"m 283 947 l 283 -169 l 424 -169 l 424 -306 l 133 -306 l 133 1083 l 424 1083 l 424 947 l 283 947 z "},"\\":{"ha":732,"x_min":21,"x_max":711,"o":"m 21 972 l 174 972 l 711 0 l 558 0 l 21 972 z "},"]":{"ha":451,"x_min":28,"x_max":318,"o":"m 168 -169 l 168 947 l 28 947 l 28 1083 l 318 1083 l 318 -306 l 28 -306 l 28 -169 l 168 -169 z "},"^":{"ha":708,"x_min":76,"x_max":632,"o":"m 354 840 l 219 632 l 76 632 l 313 986 l 396 986 l 632 632 l 489 632 l 354 840 z "},"_":{"ha":711,"x_min":0,"x_max":711,"o":"m 0 -196 l 0 -97 l 711 -97 l 711 -196 l 0 -196 z "},"`":{"ha":521,"x_min":92,"x_max":428,"o":"m 92 914 l 219 975 l 428 753 l 342 706 l 92 914 z "},"a":{"ha":706,"x_min":39,"x_max":626,"o":"m 190 189 q 308 100 190 100 q 479 253 479 100 l 479 265 q 335 297 417 297 q 227 269 264 297 q 190 189 190 240 m 158 469 l 97 578 q 360 654 225 654 q 553 601 479 654 q 626 456 626 549 l 626 0 l 479 0 l 479 92 q 394 14 451 42 q 263 -14 336 -14 q 99 37 160 -14 q 39 175 39 88 q 115 336 39 279 q 313 393 190 393 q 479 350 404 393 l 479 439 q 443 507 479 482 q 353 532 407 532 q 158 469 250 532 z "},"b":{"ha":817,"x_min":90,"x_max":771,"o":"m 681 563 q 726 517 681 563 q 771 319 771 472 q 681 76 771 167 q 460 -14 590 -14 q 242 106 318 -14 l 242 0 l 90 0 l 90 1083 l 242 1083 l 242 533 q 460 653 318 653 q 681 563 590 653 m 560 172 q 588 199 560 172 q 615 319 615 226 q 560 467 615 413 q 422 522 504 522 q 297 467 353 522 q 242 319 242 411 q 297 172 242 228 q 422 117 353 117 q 560 172 504 117 z "},"c":{"ha":672,"x_min":42,"x_max":603,"o":"m 196 319 q 253 172 196 229 q 394 115 310 115 q 520 146 463 115 q 603 224 578 176 l 603 58 q 388 -14 533 -14 q 140 79 239 -14 q 42 319 42 172 q 140 560 42 467 q 388 653 239 653 q 603 581 528 653 l 603 415 q 519 492 578 461 q 394 524 460 524 q 253 465 310 524 q 196 319 196 407 z "},"d":{"ha":817,"x_min":47,"x_max":728,"o":"m 138 76 q 92 122 138 76 q 47 319 47 167 q 138 563 47 472 q 358 653 228 653 q 576 533 500 653 l 576 1083 l 728 1083 l 728 0 l 576 0 l 576 106 q 358 -14 500 -14 q 138 76 228 -14 m 258 467 q 231 440 258 467 q 203 319 203 413 q 258 172 203 226 q 394 117 314 117 q 521 172 465 117 q 576 319 576 228 q 521 467 576 411 q 394 522 465 522 q 258 467 314 522 z "},"e":{"ha":747,"x_min":47,"x_max":700,"o":"m 538 389 q 489 499 529 460 q 379 539 449 539 q 262 499 310 539 q 204 389 214 458 l 538 389 m 201 285 q 257 154 210 199 q 381 110 304 110 q 564 211 503 110 l 694 158 q 569 30 642 74 q 374 -14 496 -14 q 138 80 228 -14 q 47 319 47 174 q 53 388 47 358 q 160 581 74 508 q 381 653 246 653 q 614 565 528 653 q 700 326 700 478 q 697 285 700 315 l 201 285 z "},"f":{"ha":429,"x_min":43,"x_max":464,"o":"m 394 922 q 328 958 371 958 q 261 846 261 958 l 261 639 l 410 639 l 410 507 l 261 507 l 261 0 l 113 0 l 113 507 l 43 507 l 43 639 l 113 639 l 113 875 q 166 1042 113 985 q 319 1100 219 1100 q 464 1039 408 1100 l 394 922 z "},"g":{"ha":814,"x_min":47,"x_max":724,"o":"m 138 81 q 92 125 138 81 q 47 322 47 169 q 138 564 47 475 q 358 653 228 653 q 576 535 501 653 l 576 639 l 724 639 l 724 14 q 628 -237 724 -150 q 393 -325 533 -325 q 152 -248 240 -325 q 60 -43 64 -171 l 208 -43 q 260 -151 211 -108 q 389 -194 310 -194 q 522 -141 467 -194 q 576 14 576 -87 l 576 110 q 358 -7 501 -7 q 138 81 228 -7 m 258 469 q 230 442 258 469 q 203 322 203 415 q 258 176 203 229 q 394 124 313 124 q 521 177 465 124 q 576 322 576 231 q 521 468 576 414 q 394 522 465 522 q 258 469 313 522 z "},"h":{"ha":753,"x_min":96,"x_max":658,"o":"m 507 389 q 389 532 507 532 q 286 492 325 532 q 247 389 247 453 l 247 0 l 96 0 l 96 1083 l 247 1083 l 247 543 q 439 657 308 657 q 602 594 546 657 q 658 410 658 531 l 658 0 l 507 0 l 507 389 z "},"i":{"ha":369,"x_min":90,"x_max":281,"o":"m 117 828 q 104 841 117 828 q 90 893 90 854 q 117 958 90 932 q 185 985 144 985 q 253 958 225 985 q 281 893 281 932 q 253 828 281 854 q 185 801 225 801 q 117 828 144 801 m 111 639 l 258 639 l 258 0 l 111 0 l 111 639 z "},"j":{"ha":358,"x_min":-103,"x_max":269,"o":"m 108 828 q 94 841 108 828 q 81 893 81 854 q 108 958 81 932 q 175 985 135 985 q 242 958 215 985 q 269 893 269 932 q 242 828 269 854 q 175 801 215 801 q 108 828 135 801 m -33 -137 q 33 -174 -10 -174 q 100 -61 100 -174 l 100 639 l 249 639 l 249 -90 q 195 -258 249 -200 q 42 -317 142 -317 q -103 -254 -47 -317 l -33 -137 z "},"k":{"ha":688,"x_min":90,"x_max":683,"o":"m 472 639 l 656 639 l 381 375 l 683 0 l 501 0 l 238 325 l 238 0 l 90 0 l 90 1083 l 238 1083 l 238 414 l 472 639 z "},"l":{"ha":342,"x_min":96,"x_max":247,"o":"m 96 1083 l 247 1083 l 247 0 l 96 0 l 96 1083 z "},"m":{"ha":1106,"x_min":96,"x_max":1011,"o":"m 1011 406 l 1011 0 l 860 0 l 860 389 q 835 497 860 461 q 753 532 810 532 q 660 493 693 532 q 626 389 626 454 l 626 0 l 475 0 l 475 389 q 451 497 475 461 q 369 532 426 532 q 276 493 310 532 q 243 389 243 454 l 243 0 l 96 0 l 96 639 l 243 639 l 243 546 q 422 653 300 653 q 606 540 563 653 q 807 653 675 653 q 1011 406 1011 653 z "},"n":{"ha":757,"x_min":96,"x_max":661,"o":"m 507 389 q 389 532 507 532 q 286 492 325 532 q 247 389 247 453 l 247 0 l 96 0 l 96 639 l 247 639 l 247 540 q 439 653 308 653 q 603 590 546 653 q 661 406 661 526 l 661 0 l 507 0 l 507 389 z "},"o":{"ha":782,"x_min":47,"x_max":736,"o":"m 145 79 q 96 126 145 79 q 47 319 47 172 q 145 560 47 467 q 392 653 243 653 q 638 560 540 653 q 736 319 736 467 q 638 79 736 172 q 392 -14 540 -14 q 145 79 243 -14 m 256 465 q 228 436 256 465 q 201 319 201 408 q 256 174 201 231 q 392 118 310 118 q 528 174 474 118 q 582 319 582 231 q 528 465 582 408 q 392 521 474 521 q 256 465 310 521 z "},"p":{"ha":817,"x_min":90,"x_max":771,"o":"m 681 565 q 726 519 681 565 q 771 319 771 474 q 681 74 771 165 q 460 -17 590 -17 q 242 107 314 -17 l 242 -306 l 90 -306 l 90 639 l 242 639 l 242 532 q 460 656 314 656 q 681 565 590 656 m 560 173 q 588 200 560 173 q 615 319 615 226 q 560 466 615 413 q 422 519 504 519 q 297 465 351 519 q 242 319 242 411 q 297 174 242 228 q 422 119 351 119 q 560 173 504 119 z "},"q":{"ha":817,"x_min":47,"x_max":728,"o":"m 138 74 q 92 120 138 74 q 47 319 47 165 q 138 565 47 474 q 358 656 228 656 q 576 532 504 656 l 576 639 l 728 639 l 728 -306 l 576 -306 l 576 107 q 358 -17 504 -17 q 138 74 228 -17 m 258 466 q 230 439 258 466 q 203 319 203 413 q 258 173 203 226 q 394 119 313 119 q 521 174 465 119 q 576 319 576 228 q 521 465 576 411 q 394 519 465 519 q 258 466 313 519 z "},"r":{"ha":514,"x_min":96,"x_max":508,"o":"m 435 478 q 350 513 392 513 q 244 360 244 513 l 244 0 l 96 0 l 96 639 l 244 639 l 244 561 q 390 653 304 653 q 508 606 467 653 l 435 478 z "},"s":{"ha":589,"x_min":31,"x_max":551,"o":"m 122 231 q 206 140 157 172 q 306 108 256 108 q 397 174 397 108 q 393 197 397 186 q 378 218 389 208 q 360 235 368 228 q 334 250 351 242 q 307 263 317 258 q 274 276 297 267 q 243 289 251 285 q 178 319 204 306 q 124 356 153 333 q 82 408 96 378 q 68 478 68 439 q 135 606 68 558 q 294 653 201 653 q 441 621 372 653 q 542 540 510 589 l 458 451 q 384 506 429 485 q 300 528 339 528 q 215 471 215 528 q 219 453 215 461 q 234 437 224 444 q 254 423 244 429 q 281 409 264 417 q 310 397 299 401 q 343 383 322 392 q 375 371 364 375 q 551 181 551 300 q 313 -19 551 -19 q 142 26 219 -19 q 31 144 64 72 l 122 231 z "},"t":{"ha":376,"x_min":7,"x_max":369,"o":"m 114 861 l 263 861 l 263 639 l 369 639 l 369 507 l 263 507 l 263 0 l 114 0 l 114 507 l 7 507 l 7 639 l 114 639 l 114 861 z "},"u":{"ha":757,"x_min":96,"x_max":661,"o":"m 250 250 q 369 107 250 107 q 472 147 433 107 q 511 250 511 186 l 511 639 l 661 639 l 661 0 l 511 0 l 511 100 q 318 -14 447 -14 q 153 49 211 -14 q 96 233 96 113 l 96 639 l 250 639 l 250 250 z "},"v":{"ha":660,"x_min":-1,"x_max":661,"o":"m -1 639 l 164 639 l 331 226 l 497 639 l 661 639 l 331 -58 l -1 639 z "},"w":{"ha":989,"x_min":0,"x_max":989,"o":"m 0 639 l 164 639 l 313 260 l 489 688 l 676 257 l 826 639 l 989 639 l 692 -44 l 490 388 l 299 -44 l 0 639 z "},"x":{"ha":646,"x_min":0,"x_max":646,"o":"m 464 639 l 632 639 l 403 329 l 646 0 l 478 0 l 325 219 l 172 0 l 0 0 l 244 329 l 14 639 l 186 639 l 325 439 l 464 639 z "},"y":{"ha":656,"x_min":-6,"x_max":661,"o":"m 661 639 l 244 -306 l 85 -306 l 253 75 l -6 639 l 167 639 l 335 224 l 500 639 l 661 639 z "},"z":{"ha":674,"x_min":21,"x_max":653,"o":"m 392 500 l 69 500 l 69 639 l 653 639 l 288 139 l 618 139 l 618 0 l 21 0 l 392 500 z "},"{":{"ha":481,"x_min":63,"x_max":411,"o":"m 296 889 l 296 681 q 294 598 296 631 q 283 522 292 565 q 252 448 274 478 q 196 403 231 418 q 252 358 231 388 q 283 284 274 328 q 294 208 292 240 q 296 125 296 175 l 296 -83 q 314 -132 296 -111 q 363 -153 332 -153 l 411 -153 l 411 -278 l 311 -278 q 189 -228 242 -278 q 136 -83 136 -179 l 136 194 q 119 303 136 271 q 63 347 101 336 l 63 458 q 119 502 101 469 q 136 611 136 535 l 136 889 q 189 1034 136 985 q 311 1083 242 1083 l 411 1083 l 411 958 l 363 958 q 314 938 332 958 q 296 889 296 917 z "},"|":{"ha":424,"x_min":139,"x_max":286,"o":"m 139 1090 l 286 1090 l 286 -299 l 139 -299 l 139 1090 z "},"}":{"ha":481,"x_min":79,"x_max":428,"o":"m 194 -83 l 194 125 q 197 208 194 175 q 208 284 199 240 q 238 358 217 328 q 294 403 260 388 q 238 448 260 418 q 208 522 217 478 q 197 598 199 565 q 194 681 194 631 l 194 889 q 176 938 194 917 q 128 958 158 958 l 79 958 l 79 1083 l 179 1083 q 301 1034 249 1083 q 354 889 354 985 l 354 611 q 372 502 354 535 q 428 458 389 469 l 428 347 q 372 303 389 336 q 354 194 354 271 l 354 -83 q 301 -228 354 -179 q 179 -278 249 -278 l 79 -278 l 79 -153 l 128 -153 q 176 -132 158 -153 q 194 -83 194 -111 z "},"~":{"ha":799,"x_min":72,"x_max":725,"o":"m 206 238 l 78 244 q 72 278 72 264 q 111 389 72 339 q 269 464 167 464 q 442 397 350 464 q 542 351 504 351 q 594 414 594 351 q 586 456 594 435 l 719 449 q 725 410 725 426 q 692 297 725 340 q 550 228 639 228 q 386 296 483 228 q 268 343 322 343 q 199 272 199 343 q 206 238 199 256 z "}," ":{"ha":417,"x_min":0,"x_max":0,"o":""},"¡":{"ha":440,"x_min":122,"x_max":319,"o":"m 314 -332 l 126 -332 l 161 346 l 279 346 l 314 -332 m 319 572 q 291 506 319 533 q 221 479 263 479 q 151 506 179 479 q 122 572 122 533 q 151 640 122 613 q 221 667 179 667 q 291 640 263 667 q 319 572 319 613 z "},"¢":{"ha":806,"x_min":94,"x_max":657,"o":"m 360 803 l 485 803 l 481 651 q 657 581 597 640 l 657 414 q 574 492 631 460 q 449 524 517 524 q 306 466 364 524 q 249 319 249 408 q 306 172 249 229 q 449 115 364 115 q 574 147 517 115 q 657 225 631 179 l 657 58 q 481 -12 600 -1 l 485 -156 l 360 -156 l 363 -7 q 169 106 243 17 q 94 319 94 194 q 169 533 94 444 q 363 646 243 622 l 360 803 z "},"£":{"ha":822,"x_min":82,"x_max":751,"o":"m 617 658 q 572 789 613 736 q 453 842 531 842 q 347 808 390 842 q 304 708 304 775 q 314 647 304 678 q 331 603 324 617 q 361 554 338 589 q 389 514 385 519 l 603 514 l 603 396 l 433 396 q 435 369 435 388 q 329 144 435 243 l 731 144 l 731 0 l 82 0 q 239 194 192 114 q 286 367 286 275 q 283 396 286 376 l 93 396 l 93 514 l 224 514 q 185 572 199 550 q 158 635 172 593 q 144 721 144 676 q 231 914 144 842 q 450 986 318 986 q 665 899 583 986 q 751 711 746 811 l 617 658 z "},"¤":{"ha":803,"x_min":44,"x_max":758,"o":"m 119 58 l 44 135 l 132 221 q 72 417 72 307 q 132 613 72 526 l 44 699 l 119 775 l 206 689 q 403 750 290 750 q 599 690 515 750 l 683 775 l 758 699 l 674 614 q 733 417 733 528 q 674 219 733 306 l 758 135 l 683 58 l 599 143 q 403 83 515 83 q 206 144 290 83 l 119 58 m 268 556 q 242 529 268 556 q 215 417 215 501 q 268 277 215 332 q 403 222 321 222 q 537 277 485 222 q 589 417 589 332 q 537 556 589 501 q 403 611 485 611 q 268 556 321 611 z "},"¥":{"ha":854,"x_min":15,"x_max":842,"o":"m 63 389 l 63 507 l 288 507 l 15 972 l 201 972 l 428 556 l 656 972 l 842 972 l 568 507 l 786 507 l 786 389 l 513 389 l 513 299 l 786 299 l 786 181 l 513 181 l 513 0 l 344 0 l 344 181 l 63 181 l 63 299 l 344 299 l 344 389 l 63 389 z "},"¦":{"ha":424,"x_min":139,"x_max":286,"o":"m 139 965 l 286 965 l 286 618 l 139 618 l 139 965 m 286 354 l 286 7 l 139 7 l 139 354 l 286 354 z "},"§":{"ha":660,"x_min":56,"x_max":585,"o":"m 317 607 q 242 513 242 572 q 251 466 242 486 q 283 432 261 446 q 322 410 304 418 q 369 392 339 403 q 418 434 400 406 q 436 494 436 463 q 406 560 436 536 q 317 607 375 583 m 151 231 q 230 143 179 175 q 333 111 281 111 q 431 178 431 111 q 409 227 431 206 q 363 260 388 249 q 290 288 338 271 q 96 485 96 353 q 224 647 96 603 q 104 813 104 707 q 173 945 104 896 q 332 994 242 994 q 481 960 411 994 q 574 876 550 925 l 481 788 q 417 842 458 822 q 338 861 376 861 q 251 807 251 861 q 263 778 251 792 q 301 751 274 764 q 344 731 328 738 q 400 710 361 724 q 582 518 582 644 q 464 350 582 394 q 585 181 585 282 q 515 29 585 79 q 333 -21 444 -21 q 160 26 236 -21 q 56 144 83 72 l 151 231 z "},"¨":{"ha":675,"x_min":89,"x_max":588,"o":"m 419 833 q 405 847 419 833 q 390 901 390 861 q 419 970 390 942 q 489 999 447 999 q 559 970 531 999 q 588 901 588 942 q 559 833 588 861 q 489 804 531 804 q 419 833 447 804 m 117 833 q 103 847 117 833 q 89 901 89 861 q 117 970 89 942 q 186 999 144 999 q 256 970 228 999 q 285 901 285 942 q 256 833 285 861 q 186 804 228 804 q 117 833 144 804 z "},"©":{"ha":1111,"x_min":56,"x_max":1056,"o":"m 416 635 q 388 606 416 635 q 360 486 360 578 q 416 338 360 394 q 560 281 472 281 q 742 363 674 281 l 742 246 q 556 183 668 183 q 339 269 425 183 q 253 486 253 354 q 339 703 253 618 q 556 789 425 789 q 742 726 668 789 l 742 610 q 560 692 674 692 q 416 635 472 692 m 253 794 q 193 732 253 794 q 132 486 132 671 q 253 178 132 301 q 556 56 375 56 q 858 178 736 56 q 979 486 979 301 q 858 794 979 671 q 556 917 736 917 q 253 794 375 917 m 199 128 q 127 199 199 128 q 56 486 56 269 q 199 844 56 703 q 556 986 342 986 q 913 844 769 986 q 1056 486 1056 703 q 913 128 1056 269 q 556 -14 769 -14 q 199 128 342 -14 z "},"ª":{"ha":349,"x_min":26,"x_max":321,"o":"m 103 738 q 163 689 103 689 q 223 708 199 689 q 247 765 247 726 l 247 781 q 175 799 214 799 q 123 781 143 799 q 103 738 103 763 m 86 886 l 56 942 q 189 979 121 979 q 285 953 249 979 q 321 879 321 926 l 321 639 l 247 639 l 247 685 q 139 632 217 632 q 59 660 92 632 q 26 736 26 688 q 67 815 26 783 q 164 846 108 846 q 247 825 211 846 l 247 868 q 229 903 247 890 q 185 917 211 917 q 86 886 128 917 z "},"«":{"ha":725,"x_min":49,"x_max":646,"o":"m 192 360 l 400 90 l 306 17 l 49 354 l 306 692 l 400 618 l 192 360 m 438 360 l 646 90 l 553 17 l 294 354 l 553 692 l 646 618 l 438 360 z "},"¬":{"ha":878,"x_min":90,"x_max":788,"o":"m 90 401 l 90 536 l 788 536 l 788 243 l 667 243 l 667 401 l 90 401 z "},"­":{"ha":292,"x_min":7,"x_max":285,"o":"m 7 278 l 7 382 l 285 382 l 285 278 l 7 278 z "},"®":{"ha":1111,"x_min":56,"x_max":1056,"o":"m 468 514 l 544 514 q 627 540 596 514 q 658 611 658 565 q 628 682 658 657 q 544 707 597 707 l 468 706 l 468 514 m 468 433 l 468 208 l 369 208 l 369 792 l 550 792 q 703 742 646 792 q 760 614 760 693 q 724 506 760 551 q 625 443 688 461 l 790 208 l 672 208 l 529 433 l 468 433 m 253 794 q 193 732 253 794 q 132 486 132 671 q 253 178 132 301 q 556 56 375 56 q 858 178 736 56 q 979 486 979 301 q 858 794 979 671 q 556 917 736 917 q 253 794 375 917 m 199 128 q 127 199 199 128 q 56 486 56 269 q 199 844 56 703 q 556 986 342 986 q 913 844 769 986 q 1056 486 1056 703 q 913 128 1056 269 q 556 -14 769 -14 q 199 128 342 -14 z "},"¯":{"ha":719,"x_min":111,"x_max":610,"o":"m 111 818 l 111 953 l 610 953 l 610 818 l 111 818 z "},"°":{"ha":396,"x_min":26,"x_max":371,"o":"m 75 711 q 51 735 75 711 q 26 832 26 758 q 75 953 26 906 q 197 1000 124 1000 q 322 953 272 1000 q 371 832 371 906 q 322 711 371 758 q 197 664 272 664 q 75 711 124 664 m 128 905 q 114 891 128 905 q 100 832 100 876 q 128 759 100 788 q 197 731 156 731 q 267 759 239 731 q 296 832 296 788 q 267 905 296 876 q 197 933 239 933 q 128 905 156 933 z "},"±":{"ha":864,"x_min":90,"x_max":775,"o":"m 90 3 l 90 142 l 775 142 l 775 3 l 90 3 m 354 861 l 511 861 l 511 614 l 775 614 l 775 472 l 511 472 l 511 225 l 354 225 l 354 472 l 90 472 l 90 614 l 354 614 l 354 861 z "},"²":{"ha":515,"x_min":35,"x_max":479,"o":"m 35 392 l 304 676 q 371 806 371 747 q 347 870 371 843 q 276 897 322 897 q 195 863 226 897 q 164 769 164 828 l 67 769 q 124 925 67 864 q 278 986 181 986 q 422 931 371 986 q 472 804 472 875 q 392 644 472 722 l 226 483 l 479 483 l 479 392 l 35 392 z "},"³":{"ha":463,"x_min":31,"x_max":433,"o":"m 378 424 q 350 401 378 424 q 232 378 322 378 q 86 430 142 378 q 31 556 31 482 l 131 556 q 160 489 131 514 q 235 464 189 464 q 307 488 281 464 q 333 556 333 513 q 298 627 333 601 q 203 653 263 653 l 203 728 q 285 754 254 728 q 317 819 317 781 q 297 877 317 856 q 238 899 276 899 q 174 875 200 899 q 149 817 149 851 l 56 817 q 106 935 56 889 q 238 982 157 982 q 368 936 319 982 q 417 824 417 890 q 314 694 417 736 q 433 544 433 657 q 378 424 433 469 z "},"´":{"ha":521,"x_min":92,"x_max":428,"o":"m 428 914 l 178 706 l 92 753 l 300 975 l 428 914 z "},"µ":{"ha":757,"x_min":96,"x_max":661,"o":"m 250 250 q 369 107 250 107 q 472 147 433 107 q 511 250 511 186 l 511 639 l 661 639 l 661 0 l 511 0 l 511 89 q 318 -14 444 -14 q 243 -4 274 -14 l 243 -444 l 96 -444 l 96 639 l 250 639 l 250 250 z "},"¶":{"ha":854,"x_min":83,"x_max":772,"o":"m 400 375 q 174 454 264 375 q 83 674 83 533 q 174 893 83 814 q 400 972 264 972 l 772 972 l 772 -306 l 639 -306 l 639 867 l 532 867 l 532 -306 l 400 -306 l 400 375 z "},"·":{"ha":429,"x_min":117,"x_max":313,"o":"m 144 280 q 131 294 144 280 q 117 349 117 308 q 144 417 117 389 q 214 446 172 446 q 284 417 256 446 q 313 349 313 389 q 284 280 313 308 q 214 251 256 251 q 144 280 172 251 z "},"¸":{"ha":510,"x_min":100,"x_max":415,"o":"m 265 89 l 378 88 l 274 -74 q 304 -72 283 -72 q 381 -103 346 -72 q 415 -187 415 -133 q 367 -290 415 -253 q 253 -326 318 -326 q 100 -272 167 -326 l 153 -201 q 242 -236 197 -236 q 314 -183 314 -236 q 239 -135 314 -135 q 146 -158 188 -135 l 265 89 z "},"¹":{"ha":660,"x_min":200,"x_max":433,"o":"m 200 828 l 200 921 l 433 974 l 433 381 l 336 381 l 336 865 l 200 828 z "},"º":{"ha":386,"x_min":28,"x_max":372,"o":"m 76 685 q 52 709 76 685 q 28 806 28 732 q 76 926 28 879 q 199 972 124 972 q 323 926 274 972 q 372 806 372 879 q 323 685 372 732 q 199 639 274 639 q 76 685 124 639 m 130 878 q 116 864 130 878 q 103 806 103 850 q 130 733 103 761 q 199 706 157 706 q 267 733 240 706 q 294 806 294 761 q 267 878 294 850 q 199 906 240 906 q 130 878 157 906 z "},"»":{"ha":725,"x_min":81,"x_max":678,"o":"m 535 349 l 326 618 l 419 692 l 678 354 l 419 17 l 326 90 l 535 349 m 289 349 l 81 618 l 174 692 l 431 354 l 174 17 l 81 90 l 289 349 z "},"¼":{"ha":1085,"x_min":39,"x_max":1039,"o":"m 853 189 l 853 408 l 701 189 l 853 189 m 947 111 l 947 0 l 846 0 l 846 111 l 558 111 l 888 583 l 947 583 l 947 197 l 1039 197 l 1039 111 l 947 111 m 865 972 l 972 972 l 250 0 l 143 0 l 865 972 m 39 828 l 39 921 l 271 974 l 271 381 l 174 381 l 174 865 l 39 828 z "},"½":{"ha":1179,"x_min":39,"x_max":1136,"o":"m 865 972 l 972 972 l 250 0 l 143 0 l 865 972 m 39 828 l 39 921 l 271 974 l 271 381 l 174 381 l 174 865 l 39 828 m 692 3 l 961 288 q 1028 417 1028 358 q 1003 481 1028 454 q 933 508 978 508 q 852 474 883 508 q 821 381 821 439 l 722 381 q 780 536 722 475 q 935 597 838 597 q 1078 542 1028 597 q 1129 415 1129 486 q 1049 256 1129 333 l 883 94 l 1136 94 l 1136 3 l 692 3 z "},"¾":{"ha":1171,"x_min":39,"x_max":1126,"o":"m 940 189 l 940 408 l 789 189 l 940 189 m 1035 111 l 1035 0 l 933 0 l 933 111 l 646 111 l 975 583 l 1035 583 l 1035 197 l 1126 197 l 1126 111 l 1035 111 m 957 972 l 1064 972 l 342 0 l 235 0 l 957 972 m 387 424 q 359 401 387 424 q 242 378 332 378 q 95 430 151 378 q 39 556 39 482 l 139 556 q 168 489 139 514 q 243 464 197 464 q 315 488 289 464 q 342 556 342 513 q 306 627 342 601 q 211 653 271 653 l 211 728 q 294 754 263 728 q 325 819 325 781 q 305 877 325 856 q 246 899 285 899 q 183 875 208 899 q 157 817 157 851 l 64 817 q 115 935 64 889 q 246 982 165 982 q 376 936 328 982 q 425 824 425 890 q 322 694 425 736 q 442 544 442 657 q 387 424 442 469 z "},"¿":{"ha":813,"x_min":81,"x_max":736,"o":"m 511 971 q 525 957 511 971 q 539 906 539 943 q 511 841 539 868 q 442 814 483 814 q 372 841 400 814 q 343 906 343 868 q 372 971 343 943 q 442 999 400 999 q 511 971 483 999 m 232 278 q 281 157 232 200 q 417 114 331 114 q 625 232 547 114 l 736 150 q 597 23 674 65 q 403 -19 519 -19 q 174 65 267 -19 q 81 278 81 149 q 169 477 81 396 q 375 574 257 558 l 383 719 l 503 719 l 531 474 l 490 474 q 302 413 372 474 q 232 278 232 353 z "},"À":{"ha":958,"x_min":3,"x_max":956,"o":"m 347 389 l 611 389 l 479 697 l 347 389 m 300 250 l 189 0 l 3 0 l 479 1026 l 956 0 l 769 0 l 658 250 l 300 250 m 281 1318 l 408 1381 l 617 1158 l 531 1110 l 281 1318 z "},"Á":{"ha":958,"x_min":3,"x_max":956,"o":"m 347 389 l 611 389 l 479 697 l 347 389 m 300 250 l 189 0 l 3 0 l 479 1026 l 956 0 l 769 0 l 658 250 l 300 250 m 675 1318 l 425 1110 l 340 1158 l 549 1381 l 675 1318 z "},"Â":{"ha":958,"x_min":3,"x_max":956,"o":"m 347 389 l 611 389 l 479 697 l 347 389 m 300 250 l 189 0 l 3 0 l 479 1026 l 956 0 l 769 0 l 658 250 l 300 250 m 479 1194 l 336 1068 l 236 1140 l 479 1335 l 722 1140 l 622 1068 l 479 1194 z "},"Ã":{"ha":958,"x_min":3,"x_max":956,"o":"m 347 389 l 611 389 l 479 697 l 347 389 m 300 250 l 189 0 l 3 0 l 479 1026 l 956 0 l 769 0 l 658 250 l 300 250 m 233 1156 q 288 1242 244 1207 q 386 1276 332 1276 q 481 1242 433 1276 q 565 1208 529 1208 q 647 1278 604 1208 l 725 1201 q 662 1126 707 1160 q 563 1093 617 1093 q 469 1127 522 1093 q 385 1161 417 1161 q 333 1138 349 1161 q 317 1090 317 1114 l 233 1156 z "},"Ä":{"ha":958,"x_min":3,"x_max":956,"o":"m 347 389 l 611 389 l 479 697 l 347 389 m 300 250 l 189 0 l 3 0 l 479 1026 l 956 0 l 769 0 l 658 250 l 300 250 m 578 1099 q 564 1114 578 1099 q 550 1168 550 1128 q 578 1237 550 1208 q 647 1265 606 1265 q 717 1237 689 1265 q 746 1168 746 1208 q 717 1099 746 1128 q 647 1071 689 1071 q 578 1099 606 1071 m 241 1099 q 227 1114 241 1099 q 213 1168 213 1128 q 241 1237 213 1208 q 311 1265 269 1265 q 381 1237 353 1265 q 408 1168 408 1208 q 381 1099 408 1128 q 311 1071 353 1071 q 241 1099 269 1071 z "},"Å":{"ha":958,"x_min":3,"x_max":956,"o":"m 347 389 l 611 389 l 479 697 l 347 389 m 325 1110 q 370 1216 325 1175 q 479 1257 415 1257 q 588 1216 543 1257 q 633 1110 633 1175 q 598 1014 633 1053 q 508 965 563 975 l 956 0 l 769 0 l 658 250 l 300 250 l 189 0 l 3 0 l 450 965 q 360 1014 396 975 q 325 1110 325 1053 m 431 1161 q 421 1151 431 1161 q 411 1110 411 1142 q 431 1058 411 1078 q 479 1039 451 1039 q 527 1058 507 1039 q 547 1110 547 1078 q 527 1161 547 1142 q 479 1181 507 1181 q 431 1161 451 1181 z "},"Æ":{"ha":1403,"x_min":13,"x_max":1306,"o":"m 714 849 l 454 411 l 714 411 l 714 849 m 886 450 l 886 144 l 1306 144 l 1306 0 l 714 0 l 714 258 l 363 258 l 210 0 l 13 0 l 606 972 l 1306 972 l 1306 828 l 886 828 l 886 592 l 1278 592 l 1278 450 l 886 450 z "},"Ç":{"ha":960,"x_min":53,"x_max":867,"o":"m 328 733 q 279 685 328 733 q 231 486 231 638 q 328 239 231 335 q 563 143 425 143 q 867 281 751 143 l 867 86 q 588 -17 750 -10 l 546 -82 q 575 -81 556 -81 q 651 -111 617 -81 q 686 -196 686 -142 q 638 -298 686 -261 q 525 -335 590 -335 q 371 -282 436 -335 l 424 -210 q 514 -244 468 -244 q 586 -192 586 -244 q 510 -143 586 -143 q 417 -167 458 -143 l 490 -12 q 176 147 299 10 q 53 486 53 285 q 197 847 53 706 q 557 989 340 989 q 867 886 743 989 l 867 692 q 563 829 751 829 q 328 733 425 829 z "},"È":{"ha":793,"x_min":108,"x_max":700,"o":"m 269 450 l 269 144 l 700 144 l 700 0 l 108 0 l 108 972 l 700 972 l 700 828 l 269 828 l 269 592 l 672 592 l 672 450 l 269 450 m 206 1285 l 332 1347 l 540 1125 l 456 1076 l 206 1285 z "},"É":{"ha":793,"x_min":108,"x_max":700,"o":"m 269 450 l 269 144 l 700 144 l 700 0 l 108 0 l 108 972 l 700 972 l 700 828 l 269 828 l 269 592 l 672 592 l 672 450 l 269 450 m 600 1285 l 350 1076 l 265 1125 l 474 1347 l 600 1285 z "},"Ê":{"ha":793,"x_min":108,"x_max":700,"o":"m 269 450 l 269 144 l 700 144 l 700 0 l 108 0 l 108 972 l 700 972 l 700 828 l 269 828 l 269 592 l 672 592 l 672 450 l 269 450 m 414 1211 l 261 1081 l 192 1136 l 414 1331 l 636 1136 l 567 1081 l 414 1211 z "},"Ë":{"ha":793,"x_min":108,"x_max":700,"o":"m 269 450 l 269 144 l 700 144 l 700 0 l 108 0 l 108 972 l 700 972 l 700 828 l 269 828 l 269 592 l 672 592 l 672 450 l 269 450 m 495 1123 q 481 1137 495 1123 q 467 1192 467 1151 q 495 1260 467 1232 q 565 1289 524 1289 q 635 1260 607 1289 q 664 1192 664 1232 q 635 1123 664 1151 q 565 1094 607 1094 q 495 1123 524 1094 m 194 1123 q 180 1137 194 1123 q 165 1192 165 1151 q 194 1260 165 1232 q 264 1289 222 1289 q 333 1260 306 1289 q 361 1192 361 1232 q 333 1123 361 1151 q 264 1094 306 1094 q 194 1123 222 1094 z "},"Ì":{"ha":382,"x_min":-11,"x_max":325,"o":"m 108 972 l 275 972 l 275 0 l 108 0 l 108 972 m -11 1285 l 117 1347 l 325 1125 l 239 1076 l -11 1285 z "},"Í":{"ha":382,"x_min":50,"x_max":383,"o":"m 108 972 l 275 972 l 275 0 l 108 0 l 108 972 m 383 1285 l 133 1076 l 50 1125 l 258 1347 l 383 1285 z "},"Î":{"ha":382,"x_min":-36,"x_max":408,"o":"m 108 972 l 275 972 l 275 0 l 108 0 l 108 972 m 186 1211 l 33 1081 l -36 1136 l 186 1331 l 408 1136 l 339 1081 l 186 1211 z "},"Ï":{"ha":382,"x_min":-58,"x_max":442,"o":"m 108 972 l 275 972 l 275 0 l 108 0 l 108 972 m 272 1101 q 258 1115 272 1101 q 244 1169 244 1129 q 272 1238 244 1210 q 342 1267 300 1267 q 413 1238 383 1267 q 442 1169 442 1210 q 413 1101 442 1129 q 342 1072 383 1072 q 272 1101 300 1072 m -31 1101 q -44 1115 -31 1101 q -58 1169 -58 1129 q -31 1238 -58 1210 q 39 1267 -3 1267 q 110 1238 81 1267 q 139 1169 139 1210 q 110 1101 139 1129 q 39 1072 81 1072 q -31 1101 -3 1072 z "},"Ð":{"ha":974,"x_min":7,"x_max":922,"o":"m 275 544 l 451 544 l 451 426 l 275 426 l 275 154 l 418 154 q 660 240 567 154 q 753 486 753 326 q 660 732 753 646 q 418 818 567 818 l 275 818 l 275 544 m 7 426 l 7 544 l 108 544 l 108 972 l 422 972 q 784 839 646 972 q 922 486 922 706 q 784 133 922 267 q 422 0 646 0 l 108 0 l 108 426 l 7 426 z "},"Ñ":{"ha":1086,"x_min":108,"x_max":979,"o":"m 818 972 l 979 972 l 979 -49 l 269 643 l 269 0 l 108 0 l 108 1021 l 818 328 l 818 972 m 313 1126 q 365 1208 322 1176 q 457 1240 408 1240 q 549 1208 504 1240 q 629 1175 593 1175 q 707 1242 665 1175 l 771 1182 q 713 1110 753 1140 q 624 1081 672 1081 q 534 1113 583 1081 q 456 1146 485 1146 q 402 1122 418 1146 q 386 1075 386 1099 l 313 1126 z "},"Ò":{"ha":1114,"x_min":53,"x_max":1063,"o":"m 319 734 q 273 685 319 734 q 226 486 226 636 q 319 238 226 336 q 557 140 413 140 q 794 238 701 140 q 888 486 888 336 q 795 734 888 636 q 557 832 703 832 q 319 734 413 832 m 53 486 q 197 846 53 703 q 557 989 340 989 q 919 847 775 989 q 1063 486 1063 704 q 919 124 1063 268 q 557 -21 775 -21 q 196 124 339 -21 q 53 486 53 268 m 375 1285 l 501 1347 l 710 1125 l 625 1076 l 375 1285 z "},"Ó":{"ha":1114,"x_min":53,"x_max":1063,"o":"m 319 734 q 273 685 319 734 q 226 486 226 636 q 319 238 226 336 q 557 140 413 140 q 794 238 701 140 q 888 486 888 336 q 795 734 888 636 q 557 832 703 832 q 319 734 413 832 m 53 486 q 197 846 53 703 q 557 989 340 989 q 919 847 775 989 q 1063 486 1063 704 q 919 124 1063 268 q 557 -21 775 -21 q 196 124 339 -21 q 53 486 53 268 m 749 1285 l 499 1076 l 414 1125 l 622 1347 l 749 1285 z "},"Ô":{"ha":1114,"x_min":53,"x_max":1063,"o":"m 319 734 q 273 685 319 734 q 226 486 226 636 q 319 238 226 336 q 557 140 413 140 q 794 238 701 140 q 888 486 888 336 q 795 734 888 636 q 557 832 703 832 q 319 734 413 832 m 53 486 q 197 846 53 703 q 557 989 340 989 q 919 847 775 989 q 1063 486 1063 704 q 919 124 1063 268 q 557 -21 775 -21 q 196 124 339 -21 q 53 486 53 268 m 563 1211 l 410 1081 l 340 1136 l 563 1331 l 785 1136 l 715 1081 l 563 1211 z "},"Õ":{"ha":1114,"x_min":53,"x_max":1063,"o":"m 319 734 q 273 685 319 734 q 226 486 226 636 q 319 238 226 336 q 557 140 413 140 q 794 238 701 140 q 888 486 888 336 q 795 734 888 636 q 557 832 703 832 q 319 734 413 832 m 53 486 q 197 846 53 703 q 557 989 340 989 q 919 847 775 989 q 1063 486 1063 704 q 919 124 1063 268 q 557 -21 775 -21 q 196 124 339 -21 q 53 486 53 268 m 331 1140 q 383 1222 340 1190 q 475 1254 426 1254 q 567 1222 522 1254 q 647 1189 611 1189 q 725 1256 683 1189 l 789 1196 q 731 1124 771 1154 q 642 1094 690 1094 q 551 1127 601 1094 q 472 1160 501 1160 q 419 1136 435 1160 q 403 1089 403 1113 l 331 1140 z "},"Ö":{"ha":1114,"x_min":53,"x_max":1063,"o":"m 319 734 q 273 685 319 734 q 226 486 226 636 q 319 238 226 336 q 557 140 413 140 q 794 238 701 140 q 888 486 888 336 q 795 734 888 636 q 557 832 703 832 q 319 734 413 832 m 53 486 q 197 846 53 703 q 557 989 340 989 q 919 847 775 989 q 1063 486 1063 704 q 919 124 1063 268 q 557 -21 775 -21 q 196 124 339 -21 q 53 486 53 268 m 644 1073 q 630 1087 644 1073 q 615 1142 615 1101 q 644 1210 615 1182 q 714 1239 672 1239 q 783 1210 756 1239 q 811 1142 811 1182 q 783 1073 811 1101 q 714 1044 756 1044 q 644 1073 672 1044 m 342 1073 q 328 1087 342 1073 q 314 1142 314 1101 q 342 1210 314 1182 q 411 1239 369 1239 q 481 1210 453 1239 q 510 1142 510 1182 q 481 1073 510 1101 q 411 1044 453 1044 q 342 1073 369 1044 z "},"×":{"ha":828,"x_min":81,"x_max":747,"o":"m 178 19 l 81 119 l 322 354 l 81 589 l 178 689 l 414 446 l 650 689 l 747 589 l 506 354 l 747 119 l 650 19 l 414 263 l 178 19 z "},"Ø":{"ha":1097,"x_min":53,"x_max":1063,"o":"m 738 782 q 557 832 657 832 q 319 735 413 832 q 226 486 226 638 q 296 264 226 356 l 738 782 m 817 710 l 374 192 q 557 140 453 140 q 794 238 701 140 q 888 486 888 335 q 817 710 888 619 m 961 1044 l 1050 983 l 926 839 q 1063 486 1063 699 q 919 124 1063 268 q 557 -21 775 -21 q 267 65 392 -21 l 149 -72 l 61 -11 l 186 135 q 53 486 53 279 q 196 847 53 704 q 557 989 339 989 q 844 907 719 989 l 961 1044 z "},"Ù":{"ha":911,"x_min":100,"x_max":811,"o":"m 100 972 l 265 972 l 265 326 q 315 181 265 235 q 456 126 364 126 q 597 181 547 126 q 646 326 646 235 l 646 972 l 811 972 l 811 319 q 713 68 811 161 q 456 -25 614 -25 q 199 68 297 -25 q 100 319 100 161 l 100 972 m 258 1281 l 385 1344 l 593 1122 l 508 1072 l 258 1281 z "},"Ú":{"ha":911,"x_min":100,"x_max":811,"o":"m 100 972 l 265 972 l 265 326 q 315 181 265 235 q 456 126 364 126 q 597 181 547 126 q 646 326 646 235 l 646 972 l 811 972 l 811 319 q 713 68 811 161 q 456 -25 614 -25 q 199 68 297 -25 q 100 319 100 161 l 100 972 m 653 1281 l 403 1072 l 318 1122 l 526 1344 l 653 1281 z "},"Û":{"ha":911,"x_min":100,"x_max":811,"o":"m 100 972 l 265 972 l 265 326 q 315 181 265 235 q 456 126 364 126 q 597 181 547 126 q 646 326 646 235 l 646 972 l 811 972 l 811 319 q 713 68 811 161 q 456 -25 614 -25 q 199 68 297 -25 q 100 319 100 161 l 100 972 m 456 1200 l 314 1072 l 213 1146 l 456 1340 l 699 1146 l 597 1072 l 456 1200 z "},"Ü":{"ha":911,"x_min":100,"x_max":811,"o":"m 100 972 l 265 972 l 265 326 q 315 181 265 235 q 456 126 364 126 q 597 181 547 126 q 646 326 646 235 l 646 972 l 811 972 l 811 319 q 713 68 811 161 q 456 -25 614 -25 q 199 68 297 -25 q 100 319 100 161 l 100 972 m 544 1101 q 530 1115 544 1101 q 515 1169 515 1129 q 544 1238 515 1210 q 614 1267 572 1267 q 684 1238 656 1267 q 713 1169 713 1210 q 684 1101 713 1129 q 614 1072 656 1072 q 544 1101 572 1072 m 227 1101 q 213 1115 227 1101 q 199 1169 199 1129 q 227 1238 199 1210 q 297 1267 256 1267 q 367 1238 339 1267 q 396 1169 396 1210 q 367 1101 396 1129 q 297 1072 339 1072 q 227 1101 256 1072 z "},"Ý":{"ha":833,"x_min":3,"x_max":831,"o":"m 643 972 l 831 972 l 500 410 l 500 0 l 333 0 l 333 410 l 3 972 l 192 972 l 417 556 l 643 972 m 614 1281 l 364 1072 l 281 1122 l 489 1344 l 614 1281 z "},"Þ":{"ha":799,"x_min":111,"x_max":747,"o":"m 264 647 l 264 328 l 397 328 q 541 368 489 328 q 593 488 593 408 q 541 607 593 567 q 397 647 489 647 l 264 647 m 111 972 l 264 972 l 264 789 l 397 789 q 652 708 557 789 q 747 488 747 626 q 652 268 747 349 q 397 188 557 188 l 264 188 l 264 0 l 111 0 l 111 972 z "},"ß":{"ha":803,"x_min":97,"x_max":753,"o":"m 383 125 q 536 183 471 125 q 601 336 601 242 q 535 481 601 419 q 358 542 468 542 l 358 681 q 501 721 456 681 q 546 821 546 761 q 507 923 546 885 q 390 961 468 961 q 285 928 326 961 q 244 831 244 894 l 244 0 l 97 0 l 97 842 q 183 1028 97 957 q 390 1100 269 1100 q 615 1029 535 1100 q 694 842 694 958 q 540 613 694 671 q 695 494 638 574 q 753 313 753 415 q 648 76 753 165 q 383 -14 543 -14 l 383 125 z "},"à":{"ha":706,"x_min":39,"x_max":626,"o":"m 190 189 q 308 100 190 100 q 479 253 479 100 l 479 265 q 335 297 417 297 q 227 269 264 297 q 190 189 190 240 m 158 469 l 97 578 q 360 654 225 654 q 553 601 479 654 q 626 456 626 549 l 626 0 l 479 0 l 479 92 q 394 14 451 42 q 263 -14 336 -14 q 99 37 160 -14 q 39 175 39 88 q 115 336 39 279 q 313 393 190 393 q 479 350 404 393 l 479 439 q 443 507 479 482 q 353 532 407 532 q 158 469 250 532 m 131 946 l 258 1008 l 467 786 l 381 738 l 131 946 z "},"á":{"ha":706,"x_min":39,"x_max":626,"o":"m 190 189 q 308 100 190 100 q 479 253 479 100 l 479 265 q 335 297 417 297 q 227 269 264 297 q 190 189 190 240 m 158 469 l 97 578 q 360 654 225 654 q 553 601 479 654 q 626 456 626 549 l 626 0 l 479 0 l 479 92 q 394 14 451 42 q 263 -14 336 -14 q 99 37 160 -14 q 39 175 39 88 q 115 336 39 279 q 313 393 190 393 q 479 350 404 393 l 479 439 q 443 507 479 482 q 353 532 407 532 q 158 469 250 532 m 589 946 l 339 738 l 254 786 l 463 1008 l 589 946 z "},"â":{"ha":706,"x_min":39,"x_max":626,"o":"m 190 189 q 308 100 190 100 q 479 253 479 100 l 479 265 q 335 297 417 297 q 227 269 264 297 q 190 189 190 240 m 158 469 l 97 578 q 360 654 225 654 q 553 601 479 654 q 626 456 626 549 l 626 0 l 479 0 l 479 92 q 394 14 451 42 q 263 -14 336 -14 q 99 37 160 -14 q 39 175 39 88 q 115 336 39 279 q 313 393 190 393 q 479 350 404 393 l 479 439 q 443 507 479 482 q 353 532 407 532 q 158 469 250 532 m 360 864 l 218 738 l 117 811 l 360 1006 l 603 811 l 503 738 l 360 864 z "},"ã":{"ha":706,"x_min":39,"x_max":626,"o":"m 190 189 q 308 100 190 100 q 479 253 479 100 l 479 265 q 335 297 417 297 q 227 269 264 297 q 190 189 190 240 m 158 469 l 97 578 q 360 654 225 654 q 553 601 479 654 q 626 456 626 549 l 626 0 l 479 0 l 479 92 q 394 14 451 42 q 263 -14 336 -14 q 99 37 160 -14 q 39 175 39 88 q 115 336 39 279 q 313 393 190 393 q 479 350 404 393 l 479 439 q 443 507 479 482 q 353 532 407 532 q 158 469 250 532 m 114 806 q 169 892 125 857 q 267 926 213 926 q 362 892 314 926 q 446 858 410 858 q 529 928 486 858 l 607 850 q 544 775 589 808 q 444 742 499 742 q 351 776 406 742 q 265 811 297 811 q 213 788 229 811 q 197 740 197 764 l 114 806 z "},"ä":{"ha":706,"x_min":39,"x_max":626,"o":"m 190 189 q 308 100 190 100 q 479 253 479 100 l 479 265 q 335 297 417 297 q 227 269 264 297 q 190 189 190 240 m 158 469 l 97 578 q 360 654 225 654 q 553 601 479 654 q 626 456 626 549 l 626 0 l 479 0 l 479 92 q 394 14 451 42 q 263 -14 336 -14 q 99 37 160 -14 q 39 175 39 88 q 115 336 39 279 q 313 393 190 393 q 479 350 404 393 l 479 439 q 443 507 479 482 q 353 532 407 532 q 158 469 250 532 m 441 766 q 427 780 441 766 q 413 835 413 794 q 441 903 413 875 q 511 932 469 932 q 581 903 553 932 q 610 835 610 875 q 581 766 610 794 q 511 738 553 738 q 441 766 469 738 m 139 766 q 125 780 139 766 q 111 835 111 794 q 139 903 111 875 q 208 932 167 932 q 278 903 250 932 q 307 835 307 875 q 278 766 307 794 q 208 738 250 738 q 139 766 167 738 z "},"å":{"ha":706,"x_min":39,"x_max":626,"o":"m 190 189 q 308 100 190 100 q 479 253 479 100 l 479 265 q 335 297 417 297 q 227 269 264 297 q 190 189 190 240 m 158 469 l 97 578 q 360 654 225 654 q 553 601 479 654 q 626 456 626 549 l 626 0 l 479 0 l 479 92 q 394 14 451 42 q 263 -14 336 -14 q 99 37 160 -14 q 39 175 39 88 q 115 336 39 279 q 313 393 190 393 q 479 350 404 393 l 479 439 q 443 507 479 482 q 353 532 407 532 q 158 469 250 532 m 251 779 q 228 800 251 779 q 206 886 206 821 q 251 992 206 951 q 360 1033 296 1033 q 469 992 424 1033 q 514 886 514 951 q 469 779 514 821 q 360 738 424 738 q 251 779 296 738 m 312 937 q 302 927 312 937 q 292 886 292 918 q 312 835 292 854 q 360 815 332 815 q 408 835 388 815 q 428 886 428 854 q 408 937 428 918 q 360 956 388 956 q 312 937 332 956 z "},"æ":{"ha":1185,"x_min":39,"x_max":1138,"o":"m 975 389 q 926 499 967 460 q 817 539 886 539 q 699 499 747 539 q 640 389 650 458 l 975 389 m 190 189 q 308 100 190 100 q 479 253 479 100 l 479 265 q 335 297 417 297 q 227 269 264 297 q 190 189 190 240 m 158 469 l 97 578 q 360 654 225 654 q 575 518 546 654 q 839 653 660 653 q 1052 563 967 653 q 1138 326 1138 474 q 1136 285 1138 300 l 638 285 q 694 154 646 199 q 818 110 742 110 q 1001 211 940 110 l 1131 158 q 1057 67 1096 103 q 956 8 1018 31 q 811 -14 894 -14 q 551 136 626 -14 q 464 26 533 65 q 294 -14 394 -14 q 106 36 172 -14 q 39 175 39 86 q 115 336 39 279 q 313 393 190 393 q 479 350 404 393 l 479 428 q 442 502 479 472 q 353 532 406 532 q 158 469 250 532 z "},"ç":{"ha":672,"x_min":42,"x_max":603,"o":"m 196 319 q 253 172 196 229 q 394 115 310 115 q 520 146 463 115 q 603 224 578 176 l 603 58 q 404 -14 538 -10 l 369 -68 q 399 -67 379 -67 q 475 -97 440 -67 q 510 -182 510 -128 q 462 -284 510 -247 q 349 -321 414 -321 q 193 -268 258 -321 l 247 -196 q 338 -231 292 -231 q 408 -178 408 -231 q 333 -129 408 -129 q 239 -153 281 -129 l 310 -7 q 116 105 190 17 q 42 319 42 193 q 140 560 42 467 q 388 653 239 653 q 603 581 528 653 l 603 415 q 519 492 578 461 q 394 524 460 524 q 253 465 310 524 q 196 319 196 407 z "},"è":{"ha":747,"x_min":47,"x_max":700,"o":"m 538 389 q 489 499 529 460 q 379 539 449 539 q 262 499 310 539 q 204 389 214 458 l 538 389 m 201 285 q 257 154 210 199 q 381 110 304 110 q 564 211 503 110 l 694 158 q 569 30 642 74 q 374 -14 496 -14 q 138 80 228 -14 q 47 319 47 174 q 53 388 47 358 q 160 581 74 508 q 381 653 246 653 q 614 565 528 653 q 700 326 700 478 q 697 285 700 315 l 201 285 m 158 965 l 286 1028 l 494 806 l 408 757 l 158 965 z "},"é":{"ha":747,"x_min":47,"x_max":700,"o":"m 538 389 q 489 499 529 460 q 379 539 449 539 q 262 499 310 539 q 204 389 214 458 l 538 389 m 201 285 q 257 154 210 199 q 381 110 304 110 q 564 211 503 110 l 694 158 q 569 30 642 74 q 374 -14 496 -14 q 138 80 228 -14 q 47 319 47 174 q 53 388 47 358 q 160 581 74 508 q 381 653 246 653 q 614 565 528 653 q 700 326 700 478 q 697 285 700 315 l 201 285 m 603 965 l 353 757 l 268 806 l 476 1028 l 603 965 z "},"ê":{"ha":747,"x_min":47,"x_max":700,"o":"m 538 389 q 489 499 529 460 q 379 539 449 539 q 262 499 310 539 q 204 389 214 458 l 538 389 m 201 285 q 257 154 210 199 q 381 110 304 110 q 564 211 503 110 l 694 158 q 569 30 642 74 q 374 -14 496 -14 q 138 80 228 -14 q 47 319 47 174 q 53 388 47 358 q 160 581 74 508 q 381 653 246 653 q 614 565 528 653 q 700 326 700 478 q 697 285 700 315 l 201 285 m 381 864 l 239 736 l 138 810 l 381 1004 l 624 810 l 524 736 l 381 864 z "},"ë":{"ha":747,"x_min":47,"x_max":700,"o":"m 538 389 q 489 499 529 460 q 379 539 449 539 q 262 499 310 539 q 204 389 214 458 l 538 389 m 201 285 q 257 154 210 199 q 381 110 304 110 q 564 211 503 110 l 694 158 q 569 30 642 74 q 374 -14 496 -14 q 138 80 228 -14 q 47 319 47 174 q 53 388 47 358 q 160 581 74 508 q 381 653 246 653 q 614 565 528 653 q 700 326 700 478 q 697 285 700 315 l 201 285 m 462 765 q 448 779 462 765 q 433 833 433 793 q 462 902 433 874 q 532 931 490 931 q 602 902 574 931 q 631 833 631 874 q 602 765 631 793 q 532 736 574 736 q 462 765 490 736 m 160 765 q 146 779 160 765 q 132 833 132 793 q 160 902 132 874 q 231 931 189 931 q 300 902 272 931 q 328 833 328 874 q 300 765 328 793 q 231 736 272 736 q 160 765 189 736 z "},"ì":{"ha":369,"x_min":-49,"x_max":286,"o":"m 111 639 l 258 639 l 258 0 l 111 0 l 111 639 m -49 965 l 78 1028 l 286 806 l 201 757 l -49 965 z "},"í":{"ha":369,"x_min":79,"x_max":414,"o":"m 111 639 l 258 639 l 258 0 l 111 0 l 111 639 m 414 965 l 164 757 l 79 806 l 288 1028 l 414 965 z "},"î":{"ha":369,"x_min":-58,"x_max":428,"o":"m 111 639 l 258 639 l 258 0 l 111 0 l 111 639 m 185 874 l 42 747 l -58 819 l 185 1014 l 428 819 l 328 747 l 185 874 z "},"ï":{"ha":369,"x_min":-64,"x_max":435,"o":"m 111 639 l 258 639 l 258 0 l 111 0 l 111 639 m 266 797 q 252 811 266 797 q 238 865 238 825 q 266 934 238 906 q 336 963 294 963 q 406 934 378 963 q 435 865 435 906 q 406 797 435 825 q 336 768 378 768 q 266 797 294 768 m -36 797 q -50 811 -36 797 q -64 865 -64 825 q -36 934 -64 906 q 33 963 -8 963 q 103 934 75 963 q 132 865 132 906 q 103 797 132 825 q 33 768 75 768 q -36 797 -8 768 z "},"ð":{"ha":851,"x_min":69,"x_max":783,"o":"m 567 183 q 594 211 567 183 q 622 328 622 239 q 567 474 622 417 q 426 532 511 532 q 286 474 342 532 q 231 328 231 417 q 286 183 231 239 q 426 128 342 128 q 567 183 511 128 m 206 722 l 206 819 l 306 819 l 183 971 l 392 971 l 504 819 l 697 819 l 697 722 l 576 722 l 700 557 q 783 328 783 447 q 682 77 783 171 q 426 -17 581 -17 q 171 77 272 -17 q 69 328 69 171 q 157 554 69 464 q 363 644 244 644 q 461 626 425 644 l 385 722 l 206 722 z "},"ñ":{"ha":757,"x_min":96,"x_max":661,"o":"m 507 389 q 389 532 507 532 q 286 492 325 532 q 247 389 247 453 l 247 0 l 96 0 l 96 639 l 247 639 l 247 551 q 439 653 315 653 q 603 590 546 653 q 661 406 661 526 l 661 0 l 507 0 l 507 389 m 133 804 q 188 890 144 856 q 286 925 232 925 q 381 891 333 925 q 464 857 428 857 q 547 926 504 857 l 625 849 q 562 774 607 807 q 463 740 517 740 q 369 775 422 740 q 285 810 317 810 q 233 786 249 810 q 217 739 217 763 l 133 804 z "},"ò":{"ha":782,"x_min":47,"x_max":736,"o":"m 145 79 q 96 126 145 79 q 47 319 47 172 q 145 560 47 467 q 392 653 243 653 q 638 560 540 653 q 736 319 736 467 q 638 79 736 172 q 392 -14 540 -14 q 145 79 243 -14 m 256 465 q 228 436 256 465 q 201 319 201 408 q 256 174 201 231 q 392 118 310 118 q 528 174 474 118 q 582 319 582 231 q 528 465 582 408 q 392 521 474 521 q 256 465 310 521 m 169 965 l 296 1028 l 504 806 l 419 757 l 169 965 z "},"ó":{"ha":782,"x_min":47,"x_max":736,"o":"m 145 79 q 96 126 145 79 q 47 319 47 172 q 145 560 47 467 q 392 653 243 653 q 638 560 540 653 q 736 319 736 467 q 638 79 736 172 q 392 -14 540 -14 q 145 79 243 -14 m 256 465 q 228 436 256 465 q 201 319 201 408 q 256 174 201 231 q 392 118 310 118 q 528 174 474 118 q 582 319 582 231 q 528 465 582 408 q 392 521 474 521 q 256 465 310 521 m 614 965 l 364 757 l 278 806 l 486 1028 l 614 965 z "},"ô":{"ha":782,"x_min":47,"x_max":736,"o":"m 145 79 q 96 126 145 79 q 47 319 47 172 q 145 560 47 467 q 392 653 243 653 q 638 560 540 653 q 736 319 736 467 q 638 79 736 172 q 392 -14 540 -14 q 145 79 243 -14 m 256 465 q 228 436 256 465 q 201 319 201 408 q 256 174 201 231 q 392 118 310 118 q 528 174 474 118 q 582 319 582 231 q 528 465 582 408 q 392 521 474 521 q 256 465 310 521 m 392 883 l 249 757 l 149 831 l 392 1025 l 635 831 l 533 757 l 392 883 z "},"õ":{"ha":782,"x_min":47,"x_max":736,"o":"m 145 79 q 96 126 145 79 q 47 319 47 172 q 145 560 47 467 q 392 653 243 653 q 638 560 540 653 q 736 319 736 467 q 638 79 736 172 q 392 -14 540 -14 q 145 79 243 -14 m 256 465 q 228 436 256 465 q 201 319 201 408 q 256 174 201 231 q 392 118 310 118 q 528 174 474 118 q 582 319 582 231 q 528 465 582 408 q 392 521 474 521 q 256 465 310 521 m 144 804 q 199 890 156 856 q 297 925 243 925 q 393 891 344 925 q 478 857 442 857 q 560 926 517 857 l 638 849 q 574 774 619 807 q 475 740 529 740 q 383 775 436 740 q 297 810 329 810 q 245 786 261 810 q 229 739 229 763 l 144 804 z "},"ö":{"ha":782,"x_min":47,"x_max":736,"o":"m 145 79 q 96 126 145 79 q 47 319 47 172 q 145 560 47 467 q 392 653 243 653 q 638 560 540 653 q 736 319 736 467 q 638 79 736 172 q 392 -14 540 -14 q 145 79 243 -14 m 256 465 q 228 436 256 465 q 201 319 201 408 q 256 174 201 231 q 392 118 310 118 q 528 174 474 118 q 582 319 582 231 q 528 465 582 408 q 392 521 474 521 q 256 465 310 521 m 472 797 q 458 811 472 797 q 444 865 444 825 q 472 934 444 906 q 542 963 500 963 q 612 934 583 963 q 640 865 640 906 q 612 797 640 825 q 542 768 583 768 q 472 797 500 768 m 170 797 q 156 811 170 797 q 142 865 142 825 q 170 934 142 906 q 240 963 199 963 q 310 934 282 963 q 339 865 339 906 q 310 797 339 825 q 240 768 282 768 q 170 797 199 768 z "},"÷":{"ha":874,"x_min":64,"x_max":807,"o":"m 366 613 q 352 627 366 613 q 338 682 338 642 q 366 751 338 722 q 436 779 394 779 q 506 751 478 779 q 533 682 533 722 q 506 613 533 642 q 436 585 478 585 q 366 613 394 585 m 366 44 q 352 58 366 44 q 338 113 338 72 q 366 181 338 153 q 436 210 394 210 q 506 181 478 210 q 533 113 533 153 q 506 44 533 72 q 436 15 478 15 q 366 44 394 15 m 64 332 l 64 474 l 807 474 l 807 332 l 64 332 z "},"ø":{"ha":758,"x_min":47,"x_max":736,"o":"m 478 506 q 392 525 436 525 q 251 467 308 525 q 194 319 194 408 q 239 185 194 240 l 478 506 m 538 461 l 297 138 q 392 114 340 114 q 533 172 476 114 q 589 319 589 229 q 538 461 589 403 m 619 697 l 689 664 l 622 574 q 736 319 736 479 q 638 78 736 171 q 392 -14 540 -14 q 215 28 292 -14 l 147 -64 l 78 -31 l 154 71 q 47 319 47 164 q 145 560 47 468 q 392 653 243 653 q 558 615 481 653 l 619 697 z "},"ù":{"ha":757,"x_min":96,"x_max":661,"o":"m 250 250 q 369 107 250 107 q 472 147 433 107 q 511 250 511 186 l 511 639 l 661 639 l 661 0 l 511 0 l 511 89 q 318 -14 444 -14 q 153 49 211 -14 q 96 233 96 113 l 96 639 l 250 639 l 250 250 m 197 965 l 325 1028 l 533 806 l 447 757 l 197 965 z "},"ú":{"ha":757,"x_min":96,"x_max":661,"o":"m 250 250 q 369 107 250 107 q 472 147 433 107 q 511 250 511 186 l 511 639 l 661 639 l 661 0 l 511 0 l 511 89 q 318 -14 444 -14 q 153 49 211 -14 q 96 233 96 113 l 96 639 l 250 639 l 250 250 m 558 965 l 308 757 l 225 806 l 433 1028 l 558 965 z "},"û":{"ha":757,"x_min":96,"x_max":661,"o":"m 250 250 q 369 107 250 107 q 472 147 433 107 q 511 250 511 186 l 511 639 l 661 639 l 661 0 l 511 0 l 511 89 q 318 -14 444 -14 q 153 49 211 -14 q 96 233 96 113 l 96 639 l 250 639 l 250 250 m 378 883 l 236 757 l 135 831 l 378 1025 l 621 831 l 519 757 l 378 883 z "},"ü":{"ha":757,"x_min":96,"x_max":661,"o":"m 250 250 q 369 107 250 107 q 472 147 433 107 q 511 250 511 186 l 511 639 l 661 639 l 661 0 l 511 0 l 511 89 q 318 -14 444 -14 q 153 49 211 -14 q 96 233 96 113 l 96 639 l 250 639 l 250 250 m 460 785 q 446 800 460 785 q 432 854 432 814 q 460 923 432 894 q 529 951 488 951 q 599 923 571 951 q 628 854 628 894 q 599 785 628 814 q 529 757 571 757 q 460 785 488 757 m 158 785 q 144 800 158 785 q 131 854 131 814 q 158 923 131 894 q 228 951 186 951 q 298 923 269 951 q 326 854 326 894 q 298 785 326 814 q 228 757 269 757 q 158 785 186 757 z "},"ý":{"ha":656,"x_min":-6,"x_max":661,"o":"m 661 639 l 244 -306 l 85 -306 l 253 75 l -6 639 l 167 639 l 335 224 l 500 639 l 661 639 m 526 965 l 276 757 l 192 806 l 400 1028 l 526 965 z "},"þ":{"ha":817,"x_min":90,"x_max":771,"o":"m 681 563 q 726 517 681 563 q 771 319 771 472 q 681 76 771 167 q 460 -14 590 -14 q 238 114 311 -14 l 242 42 l 158 -306 l 90 736 l 174 1083 l 214 475 q 309 606 244 560 q 460 653 374 653 q 681 563 590 653 m 560 172 q 588 199 560 172 q 615 319 615 226 q 560 467 615 413 q 422 522 504 522 q 297 467 353 522 q 242 319 242 411 q 297 172 242 228 q 422 117 353 117 q 560 172 504 117 z "},"ÿ":{"ha":656,"x_min":-6,"x_max":661,"o":"m 661 639 l 244 -306 l 85 -306 l 253 75 l -6 639 l 167 639 l 335 224 l 500 639 l 661 639 m 409 765 q 395 779 409 765 q 381 833 381 793 q 409 902 381 874 q 479 931 438 931 q 549 902 521 931 q 578 833 578 874 q 549 765 578 793 q 479 736 521 736 q 409 765 438 736 m 108 765 q 93 779 108 765 q 79 833 79 793 q 108 902 79 874 q 178 931 136 931 q 247 902 219 931 q 275 833 275 874 q 247 765 275 793 q 178 736 219 736 q 108 765 136 736 z "},"Ā":{"ha":958,"x_min":3,"x_max":956,"o":"m 347 389 l 611 389 l 479 697 l 347 389 m 300 250 l 189 0 l 3 0 l 479 1026 l 956 0 l 769 0 l 658 250 l 300 250 m 231 1110 l 231 1244 l 728 1244 l 728 1110 l 231 1110 z "},"ā":{"ha":706,"x_min":39,"x_max":626,"o":"m 190 189 q 308 100 190 100 q 479 253 479 100 l 479 265 q 335 297 417 297 q 227 269 264 297 q 190 189 190 240 m 158 469 l 97 578 q 360 654 225 654 q 553 601 479 654 q 626 456 626 549 l 626 0 l 479 0 l 479 92 q 394 14 451 42 q 263 -14 336 -14 q 99 37 160 -14 q 39 175 39 88 q 115 336 39 279 q 313 393 190 393 q 479 350 404 393 l 479 439 q 443 507 479 482 q 353 532 407 532 q 158 469 250 532 m 111 758 l 111 894 l 610 894 l 610 758 l 111 758 z "},"Ă":{"ha":958,"x_min":3,"x_max":956,"o":"m 347 389 l 611 389 l 479 697 l 347 389 m 300 250 l 189 0 l 3 0 l 479 1026 l 956 0 l 769 0 l 658 250 l 300 250 m 256 1307 l 371 1307 q 397 1240 371 1269 q 479 1211 424 1211 q 561 1240 535 1211 q 588 1307 588 1269 l 703 1307 q 643 1167 703 1225 q 479 1110 583 1110 q 315 1167 375 1110 q 256 1307 256 1225 z "},"ă":{"ha":706,"x_min":39,"x_max":626,"o":"m 190 189 q 308 100 190 100 q 479 253 479 100 l 479 265 q 335 297 417 297 q 227 269 264 297 q 190 189 190 240 m 158 469 l 97 578 q 360 654 225 654 q 553 601 479 654 q 626 456 626 549 l 626 0 l 479 0 l 479 92 q 394 14 451 42 q 263 -14 336 -14 q 99 37 160 -14 q 39 175 39 88 q 115 336 39 279 q 313 393 190 393 q 479 350 404 393 l 479 439 q 443 507 479 482 q 353 532 407 532 q 158 469 250 532 m 138 936 l 251 936 q 278 869 251 899 q 360 840 304 840 q 442 869 415 840 q 469 936 469 899 l 583 936 q 524 796 583 854 q 360 738 464 738 q 197 796 256 738 q 138 936 138 854 z "},"Ą":{"ha":958,"x_min":3,"x_max":978,"o":"m 347 389 l 611 389 l 479 697 l 347 389 m 933 -165 l 978 -246 q 850 -301 936 -301 q 726 -265 771 -301 q 682 -162 682 -228 q 801 0 682 -78 l 769 0 l 658 250 l 300 250 l 189 0 l 3 0 l 479 1026 l 956 0 l 917 0 q 834 -60 865 -25 q 803 -131 803 -96 q 864 -193 803 -193 q 933 -165 903 -193 z "},"ą":{"ha":706,"x_min":39,"x_max":667,"o":"m 190 189 q 308 100 190 100 q 479 253 479 100 l 479 265 q 335 297 417 297 q 227 269 264 297 q 190 189 190 240 m 621 -169 l 667 -249 q 538 -304 625 -304 q 415 -267 458 -304 q 371 -165 371 -231 q 493 0 371 -78 l 479 0 l 479 92 q 394 14 451 42 q 263 -14 336 -14 q 99 37 160 -14 q 39 175 39 88 q 115 336 39 279 q 313 393 190 393 q 479 350 404 393 l 479 439 q 443 507 479 482 q 353 532 407 532 q 158 469 250 532 l 97 578 q 360 654 225 654 q 553 601 479 654 q 626 456 626 549 l 626 0 l 611 0 q 525 -62 558 -25 q 492 -135 492 -100 q 551 -197 492 -197 q 621 -169 590 -197 z "},"Ć":{"ha":960,"x_min":53,"x_max":867,"o":"m 328 733 q 279 685 328 733 q 231 486 231 638 q 328 239 231 335 q 563 143 425 143 q 867 281 751 143 l 867 86 q 557 -17 743 -17 q 197 125 340 -17 q 53 486 53 267 q 197 847 53 706 q 557 989 340 989 q 867 886 743 989 l 867 692 q 563 829 751 829 q 328 733 425 829 m 738 1281 l 488 1072 l 403 1122 l 611 1344 l 738 1281 z "},"ć":{"ha":672,"x_min":42,"x_max":603,"o":"m 196 319 q 253 172 196 229 q 394 115 310 115 q 520 146 463 115 q 603 224 578 176 l 603 58 q 388 -14 533 -14 q 140 79 239 -14 q 42 319 42 172 q 140 560 42 467 q 388 653 239 653 q 603 581 528 653 l 603 415 q 519 492 578 461 q 394 524 460 524 q 253 465 310 524 q 196 319 196 407 m 568 944 l 318 736 l 233 785 l 442 1007 l 568 944 z "},"Ĉ":{"ha":960,"x_min":53,"x_max":867,"o":"m 328 733 q 279 685 328 733 q 231 486 231 638 q 328 239 231 335 q 563 143 425 143 q 867 281 751 143 l 867 86 q 557 -17 743 -17 q 197 125 340 -17 q 53 486 53 267 q 197 847 53 706 q 557 989 340 989 q 867 886 743 989 l 867 692 q 563 829 751 829 q 328 733 425 829 m 557 1200 l 415 1072 l 314 1146 l 557 1340 l 800 1146 l 700 1072 l 557 1200 z "},"ĉ":{"ha":672,"x_min":42,"x_max":614,"o":"m 196 319 q 253 172 196 229 q 394 115 310 115 q 520 146 463 115 q 603 224 578 176 l 603 58 q 388 -14 533 -14 q 140 79 239 -14 q 42 319 42 172 q 140 560 42 467 q 388 653 239 653 q 603 581 528 653 l 603 415 q 519 492 578 461 q 394 524 460 524 q 253 465 310 524 q 196 319 196 407 m 371 864 l 228 736 l 128 810 l 371 1004 l 614 810 l 513 736 l 371 864 z "},"Ċ":{"ha":960,"x_min":53,"x_max":867,"o":"m 328 733 q 279 685 328 733 q 231 486 231 638 q 328 239 231 335 q 563 143 425 143 q 867 281 751 143 l 867 86 q 557 -17 743 -17 q 197 125 340 -17 q 53 486 53 267 q 197 847 53 706 q 557 989 340 989 q 867 886 743 989 l 867 692 q 563 829 751 829 q 328 733 425 829 m 487 1101 q 473 1115 487 1101 q 458 1169 458 1129 q 487 1238 458 1210 q 557 1267 515 1267 q 627 1238 599 1267 q 656 1169 656 1210 q 627 1101 656 1129 q 557 1072 599 1072 q 487 1101 515 1072 z "},"ċ":{"ha":672,"x_min":42,"x_max":603,"o":"m 196 319 q 253 172 196 229 q 394 115 310 115 q 520 146 463 115 q 603 224 578 176 l 603 58 q 388 -14 533 -14 q 140 79 239 -14 q 42 319 42 172 q 140 560 42 467 q 388 653 239 653 q 603 581 528 653 l 603 415 q 519 492 578 461 q 394 524 460 524 q 253 465 310 524 q 196 319 196 407 m 308 772 q 293 786 308 772 q 279 840 279 800 q 308 909 279 881 q 378 938 336 938 q 447 909 419 938 q 475 840 475 881 q 447 772 475 800 q 378 743 419 743 q 308 772 336 743 z "},"Č":{"ha":960,"x_min":53,"x_max":867,"o":"m 328 733 q 279 685 328 733 q 231 486 231 638 q 328 239 231 335 q 563 143 425 143 q 867 281 751 143 l 867 86 q 557 -17 743 -17 q 197 125 340 -17 q 53 486 53 267 q 197 847 53 706 q 557 989 340 989 q 867 886 743 989 l 867 692 q 563 829 751 829 q 328 733 425 829 m 557 1214 l 700 1340 l 800 1267 l 557 1072 l 314 1267 l 415 1340 l 557 1214 z "},"č":{"ha":672,"x_min":42,"x_max":614,"o":"m 196 319 q 253 172 196 229 q 394 115 310 115 q 520 146 463 115 q 603 224 578 176 l 603 58 q 388 -14 533 -14 q 140 79 239 -14 q 42 319 42 172 q 140 560 42 467 q 388 653 239 653 q 603 581 528 653 l 603 415 q 519 492 578 461 q 394 524 460 524 q 253 465 310 524 q 196 319 196 407 m 371 878 l 513 1004 l 614 931 l 371 736 l 128 931 l 228 1004 l 371 878 z "},"Ď":{"ha":974,"x_min":108,"x_max":922,"o":"m 422 0 l 108 0 l 108 972 l 422 972 q 784 839 646 972 q 922 486 922 706 q 784 133 922 267 q 422 0 646 0 m 275 154 l 418 154 q 660 240 567 154 q 753 486 753 326 q 660 732 753 646 q 418 818 567 818 l 275 818 l 275 154 m 453 1214 l 594 1340 l 694 1267 l 453 1072 l 208 1267 l 310 1340 l 453 1214 z "},"ď":{"ha":817,"x_min":47,"x_max":1042,"o":"m 138 76 q 92 122 138 76 q 47 319 47 167 q 138 563 47 472 q 358 653 228 653 q 576 533 500 653 l 576 1083 l 728 1083 l 728 0 l 576 0 l 576 106 q 358 -14 500 -14 q 138 76 228 -14 m 258 467 q 231 440 258 467 q 203 319 203 413 q 258 172 203 226 q 394 117 314 117 q 521 172 465 117 q 576 319 576 228 q 521 467 576 411 q 394 522 465 522 q 258 467 314 522 m 892 1083 l 1042 1040 l 881 693 l 769 724 l 892 1083 z "},"Đ":{"ha":974,"x_min":7,"x_max":922,"o":"m 275 542 l 447 542 l 447 424 l 275 424 l 275 154 l 418 154 q 660 240 567 154 q 753 486 753 326 q 660 732 753 646 q 418 818 567 818 l 275 818 l 275 542 m 7 424 l 7 542 l 108 542 l 108 972 l 422 972 q 784 839 646 972 q 922 486 922 706 q 784 133 922 267 q 422 0 646 0 l 108 0 l 108 424 l 7 424 z "},"đ":{"ha":817,"x_min":47,"x_max":858,"o":"m 138 76 q 92 122 138 76 q 47 319 47 167 q 138 563 47 472 q 358 653 228 653 q 576 533 500 653 l 576 806 l 410 806 l 410 924 l 576 924 l 576 1083 l 728 1083 l 728 924 l 858 924 l 858 806 l 728 806 l 728 0 l 576 0 l 576 106 q 358 -14 500 -14 q 138 76 228 -14 m 258 467 q 231 440 258 467 q 203 319 203 413 q 258 172 203 226 q 394 117 314 117 q 521 172 465 117 q 576 319 576 228 q 521 467 576 411 q 394 522 465 522 q 258 467 314 522 z "},"Ē":{"ha":793,"x_min":108,"x_max":700,"o":"m 269 450 l 269 144 l 700 144 l 700 0 l 108 0 l 108 972 l 700 972 l 700 828 l 269 828 l 269 592 l 672 592 l 672 450 l 269 450 m 154 1072 l 154 1208 l 653 1208 l 653 1072 l 154 1072 z "},"ē":{"ha":747,"x_min":47,"x_max":700,"o":"m 538 389 q 489 499 529 460 q 379 539 449 539 q 262 499 310 539 q 204 389 214 458 l 538 389 m 201 285 q 257 154 210 199 q 381 110 304 110 q 564 211 503 110 l 694 158 q 569 30 642 74 q 374 -14 496 -14 q 138 80 228 -14 q 47 319 47 174 q 53 388 47 358 q 160 581 74 508 q 381 653 246 653 q 614 565 528 653 q 700 326 700 478 q 697 285 700 315 l 201 285 m 132 736 l 132 872 l 631 872 l 631 736 l 132 736 z "},"Ĕ":{"ha":793,"x_min":108,"x_max":700,"o":"m 269 450 l 269 144 l 700 144 l 700 0 l 108 0 l 108 972 l 700 972 l 700 828 l 269 828 l 269 592 l 672 592 l 672 450 l 269 450 m 181 1271 l 294 1271 q 321 1204 294 1233 q 403 1175 347 1175 q 485 1204 458 1175 q 513 1271 513 1233 l 626 1271 q 567 1131 626 1189 q 403 1072 507 1072 q 240 1131 299 1072 q 181 1271 181 1189 z "},"ĕ":{"ha":747,"x_min":47,"x_max":700,"o":"m 538 389 q 489 499 529 460 q 379 539 449 539 q 262 499 310 539 q 204 389 214 458 l 538 389 m 201 285 q 257 154 210 199 q 381 110 304 110 q 564 211 503 110 l 694 158 q 569 30 642 74 q 374 -14 496 -14 q 138 80 228 -14 q 47 319 47 174 q 53 388 47 358 q 160 581 74 508 q 381 653 246 653 q 614 565 528 653 q 700 326 700 478 q 697 285 700 315 l 201 285 m 158 935 l 272 935 q 299 868 272 897 q 381 839 325 839 q 463 868 436 839 q 489 935 489 897 l 604 935 q 544 794 604 853 q 381 736 485 736 q 217 794 276 736 q 158 935 158 853 z "},"Ė":{"ha":793,"x_min":108,"x_max":700,"o":"m 269 450 l 269 144 l 700 144 l 700 0 l 108 0 l 108 972 l 700 972 l 700 828 l 269 828 l 269 592 l 672 592 l 672 450 l 269 450 m 333 1101 q 319 1115 333 1101 q 306 1169 306 1129 q 333 1238 306 1210 q 403 1267 361 1267 q 473 1238 444 1267 q 501 1169 501 1210 q 473 1101 501 1129 q 403 1072 444 1072 q 333 1101 361 1072 z "},"ė":{"ha":747,"x_min":47,"x_max":700,"o":"m 538 389 q 489 499 529 460 q 379 539 449 539 q 262 499 310 539 q 204 389 214 458 l 538 389 m 201 285 q 257 154 210 199 q 381 110 304 110 q 564 211 503 110 l 694 158 q 569 30 642 74 q 374 -14 496 -14 q 138 80 228 -14 q 47 319 47 174 q 53 388 47 358 q 160 581 74 508 q 381 653 246 653 q 614 565 528 653 q 700 326 700 478 q 697 285 700 315 l 201 285 m 311 765 q 297 779 311 765 q 283 833 283 793 q 311 902 283 874 q 381 931 339 931 q 451 902 422 931 q 479 833 479 874 q 451 765 479 793 q 381 736 422 736 q 311 765 339 736 z "},"Ę":{"ha":793,"x_min":108,"x_max":731,"o":"m 685 -169 l 731 -250 q 601 -306 689 -306 q 478 -269 522 -306 q 433 -167 433 -232 q 560 0 433 -79 l 108 0 l 108 972 l 700 972 l 700 828 l 269 828 l 269 592 l 672 592 l 672 450 l 269 450 l 269 144 l 700 144 l 700 0 l 678 0 q 590 -63 624 -25 q 556 -136 556 -101 q 615 -197 556 -197 q 685 -169 654 -197 z "},"ę":{"ha":747,"x_min":47,"x_max":700,"o":"m 538 389 q 489 499 529 460 q 379 539 449 539 q 262 499 310 539 q 204 389 214 458 l 538 389 m 435 -175 l 481 -256 q 351 -311 439 -311 q 228 -274 272 -311 q 183 -172 183 -237 q 306 -8 183 -86 q 117 103 188 14 q 47 319 47 192 q 53 388 47 358 q 160 581 74 508 q 381 653 246 653 q 614 565 528 653 q 700 326 700 478 q 697 285 700 315 l 201 285 q 257 154 210 199 q 381 110 304 110 q 564 211 503 110 l 694 158 q 582 38 647 81 q 414 -12 517 -6 q 335 -73 365 -37 q 306 -142 306 -108 q 365 -203 306 -203 q 435 -175 404 -203 z "},"Ě":{"ha":793,"x_min":108,"x_max":700,"o":"m 269 450 l 269 144 l 700 144 l 700 0 l 108 0 l 108 972 l 700 972 l 700 828 l 269 828 l 269 592 l 672 592 l 672 450 l 269 450 m 403 1214 l 546 1340 l 647 1267 l 403 1072 l 161 1267 l 261 1340 l 403 1214 z "},"ě":{"ha":747,"x_min":47,"x_max":700,"o":"m 538 389 q 489 499 529 460 q 379 539 449 539 q 262 499 310 539 q 204 389 214 458 l 538 389 m 201 285 q 257 154 210 199 q 381 110 304 110 q 564 211 503 110 l 694 158 q 569 30 642 74 q 374 -14 496 -14 q 138 80 228 -14 q 47 319 47 174 q 53 388 47 358 q 160 581 74 508 q 381 653 246 653 q 614 565 528 653 q 700 326 700 478 q 697 285 700 315 l 201 285 m 381 878 l 524 1004 l 624 931 l 381 736 l 138 931 l 239 1004 l 381 878 z "},"Ĝ":{"ha":1097,"x_min":53,"x_max":1044,"o":"m 571 369 l 571 508 l 1039 508 q 915 133 1044 286 q 561 -21 786 -21 q 197 122 340 -21 q 53 486 53 264 q 197 849 53 708 q 564 989 342 989 q 982 774 844 989 l 849 683 q 564 836 758 836 q 322 740 419 836 q 225 486 225 643 q 322 231 225 329 q 564 132 418 132 q 763 197 688 132 q 868 369 839 263 l 571 369 m 564 1200 l 422 1072 l 321 1146 l 564 1340 l 807 1146 l 707 1072 l 564 1200 z "},"ĝ":{"ha":814,"x_min":47,"x_max":724,"o":"m 258 469 q 230 442 258 469 q 203 322 203 415 q 258 176 203 229 q 394 124 313 124 q 521 177 465 124 q 576 322 576 231 q 521 468 576 414 q 394 522 465 522 q 258 469 313 522 m 60 -43 l 208 -43 q 260 -151 211 -108 q 389 -194 310 -194 q 522 -141 467 -194 q 576 14 576 -87 l 576 110 q 358 -7 501 -7 q 138 81 228 -7 q 47 322 47 169 q 138 564 47 475 q 358 653 228 653 q 576 535 501 653 l 576 639 l 724 639 l 724 14 q 628 -237 724 -150 q 393 -325 533 -325 q 152 -248 240 -325 q 60 -43 64 -171 m 389 864 l 247 736 l 147 810 l 389 1004 l 633 810 l 532 736 l 389 864 z "},"Ğ":{"ha":1097,"x_min":53,"x_max":1044,"o":"m 571 369 l 571 508 l 1039 508 q 915 133 1044 286 q 561 -21 786 -21 q 197 122 340 -21 q 53 486 53 264 q 197 849 53 708 q 564 989 342 989 q 982 774 844 989 l 849 683 q 564 836 758 836 q 322 740 419 836 q 225 486 225 643 q 322 231 225 329 q 564 132 418 132 q 763 197 688 132 q 868 369 839 263 l 571 369 m 342 1271 l 456 1271 q 482 1204 456 1233 q 564 1175 508 1175 q 646 1204 619 1175 q 672 1271 672 1233 l 788 1271 q 728 1131 788 1189 q 564 1072 668 1072 q 401 1131 460 1072 q 342 1271 342 1189 z "},"ğ":{"ha":814,"x_min":47,"x_max":724,"o":"m 258 469 q 230 442 258 469 q 203 322 203 415 q 258 176 203 229 q 394 124 313 124 q 521 177 465 124 q 576 322 576 231 q 521 468 576 414 q 394 522 465 522 q 258 469 313 522 m 60 -43 l 208 -43 q 260 -151 211 -108 q 389 -194 310 -194 q 522 -141 467 -194 q 576 14 576 -87 l 576 110 q 358 -7 501 -7 q 138 81 228 -7 q 47 322 47 169 q 138 564 47 475 q 358 653 228 653 q 576 535 501 653 l 576 639 l 724 639 l 724 14 q 628 -237 724 -150 q 393 -325 533 -325 q 152 -248 240 -325 q 60 -43 64 -171 m 169 935 l 285 935 q 311 868 285 897 q 393 839 338 839 q 475 868 449 839 q 501 935 501 897 l 617 935 q 557 794 617 853 q 393 736 497 736 q 229 794 289 736 q 169 935 169 853 z "},"Ġ":{"ha":1097,"x_min":53,"x_max":1044,"o":"m 571 369 l 571 508 l 1039 508 q 915 133 1044 286 q 561 -21 786 -21 q 197 122 340 -21 q 53 486 53 264 q 197 849 53 708 q 564 989 342 989 q 982 774 844 989 l 849 683 q 564 836 758 836 q 322 740 419 836 q 225 486 225 643 q 322 231 225 329 q 564 132 418 132 q 763 197 688 132 q 868 369 839 263 l 571 369 m 494 1101 q 481 1115 494 1101 q 467 1169 467 1129 q 494 1238 467 1210 q 564 1267 522 1267 q 634 1238 606 1267 q 663 1169 663 1210 q 634 1101 663 1129 q 564 1072 606 1072 q 494 1101 522 1072 z "},"ġ":{"ha":814,"x_min":47,"x_max":724,"o":"m 258 469 q 230 442 258 469 q 203 322 203 415 q 258 176 203 229 q 394 124 313 124 q 521 177 465 124 q 576 322 576 231 q 521 468 576 414 q 394 522 465 522 q 258 469 313 522 m 60 -43 l 208 -43 q 260 -151 211 -108 q 389 -194 310 -194 q 522 -141 467 -194 q 576 14 576 -87 l 576 110 q 358 -7 501 -7 q 138 81 228 -7 q 47 322 47 169 q 138 564 47 475 q 358 653 228 653 q 576 535 501 653 l 576 639 l 724 639 l 724 14 q 628 -237 724 -150 q 393 -325 533 -325 q 152 -248 240 -325 q 60 -43 64 -171 m 319 765 q 306 779 319 765 q 292 833 292 793 q 319 902 292 874 q 389 931 347 931 q 459 902 431 931 q 488 833 488 874 q 459 765 488 793 q 389 736 431 736 q 319 765 347 736 z "},"Ģ":{"ha":1097,"x_min":53,"x_max":1044,"o":"m 571 369 l 571 508 l 1039 508 q 915 133 1044 286 q 561 -21 786 -21 q 197 122 340 -21 q 53 486 53 264 q 197 849 53 708 q 564 989 342 989 q 982 774 844 989 l 849 683 q 564 836 758 836 q 322 740 419 836 q 225 486 225 643 q 322 231 225 329 q 564 132 418 132 q 763 197 688 132 q 868 369 839 263 l 571 369 m 529 -104 l 681 -147 l 518 -494 l 407 -464 l 529 -104 z "},"Ĥ":{"ha":1032,"x_min":108,"x_max":925,"o":"m 108 972 l 272 972 l 272 597 l 761 597 l 761 972 l 925 972 l 925 0 l 761 0 l 761 446 l 272 446 l 272 0 l 108 0 l 108 972 m 517 1200 l 375 1072 l 274 1146 l 517 1340 l 760 1146 l 660 1072 l 517 1200 z "},"ĥ":{"ha":753,"x_min":-12,"x_max":658,"o":"m 507 389 q 389 532 507 532 q 286 492 325 532 q 247 389 247 453 l 247 0 l 96 0 l 96 1083 l 247 1083 l 247 554 q 439 657 315 657 q 602 594 546 657 q 658 410 658 531 l 658 0 l 507 0 l 507 389 m 231 1293 l 89 1167 l -12 1239 l 231 1433 l 474 1239 l 372 1167 l 231 1293 z "},"Ĩ":{"ha":382,"x_min":-56,"x_max":439,"o":"m 108 972 l 275 972 l 275 0 l 108 0 l 108 972 m -56 1140 q -1 1226 -44 1192 q 97 1261 43 1261 q 193 1227 144 1261 q 278 1193 242 1193 q 361 1263 318 1193 l 439 1186 q 375 1111 421 1144 q 275 1078 329 1078 q 182 1112 236 1078 q 97 1146 128 1146 q 45 1122 61 1146 q 29 1075 29 1099 l -56 1140 z "},"ĩ":{"ha":369,"x_min":-61,"x_max":432,"o":"m 111 639 l 258 639 l 258 0 l 111 0 l 111 639 m -61 804 q -6 890 -50 856 q 92 925 38 925 q 187 891 139 925 q 271 857 235 857 q 354 926 311 857 l 432 849 q 368 774 414 807 q 268 740 322 740 q 174 775 228 740 q 90 810 121 810 q 38 786 54 810 q 22 739 22 763 l -61 804 z "},"Ī":{"ha":382,"x_min":-58,"x_max":440,"o":"m 108 972 l 275 972 l 275 0 l 108 0 l 108 972 m -58 1072 l -58 1208 l 440 1208 l 440 1072 l -58 1072 z "},"ī":{"ha":369,"x_min":-64,"x_max":433,"o":"m 111 639 l 258 639 l 258 0 l 111 0 l 111 639 m -64 736 l -64 872 l 433 872 l 433 736 l -64 736 z "},"Ĭ":{"ha":382,"x_min":-32,"x_max":414,"o":"m 108 972 l 275 972 l 275 0 l 108 0 l 108 972 m -32 1271 l 83 1271 q 110 1204 83 1233 q 192 1175 136 1175 q 274 1204 247 1175 q 300 1271 300 1233 l 414 1271 q 355 1131 414 1189 q 192 1072 296 1072 q 28 1131 88 1072 q -32 1271 -32 1189 z "},"ĭ":{"ha":369,"x_min":-39,"x_max":408,"o":"m 111 639 l 258 639 l 258 0 l 111 0 l 111 639 m -39 935 l 76 935 q 103 868 76 897 q 185 839 129 839 q 267 868 240 839 q 293 935 293 897 l 408 935 q 349 794 408 853 q 185 736 289 736 q 21 794 81 736 q -39 935 -39 853 z "},"Į":{"ha":382,"x_min":15,"x_max":311,"o":"m 265 -186 l 311 -267 q 183 -322 269 -322 q 60 -285 104 -322 q 15 -183 15 -249 q 168 0 15 -86 l 108 0 l 108 972 l 275 972 l 275 0 l 231 0 l 258 -17 q 170 -80 204 -42 q 136 -153 136 -118 q 196 -214 136 -214 q 265 -186 235 -214 z "},"į":{"ha":369,"x_min":8,"x_max":306,"o":"m 117 828 q 104 841 117 828 q 90 893 90 854 q 117 958 90 932 q 185 985 144 985 q 253 958 225 985 q 281 893 281 932 q 253 828 281 854 q 185 801 225 801 q 117 828 144 801 m 258 -186 l 306 -267 q 176 -322 264 -322 q 53 -285 97 -322 q 8 -183 8 -249 q 161 0 8 -86 l 111 0 l 111 639 l 258 639 l 258 0 l 225 0 l 253 -17 q 165 -80 199 -42 q 131 -153 131 -118 q 189 -214 131 -214 q 258 -186 228 -214 z "},"İ":{"ha":382,"x_min":92,"x_max":289,"o":"m 108 972 l 275 972 l 275 0 l 108 0 l 108 972 m 120 1101 q 106 1115 120 1101 q 92 1169 92 1129 q 120 1238 92 1210 q 190 1267 149 1267 q 260 1238 232 1267 q 289 1169 289 1210 q 260 1101 289 1129 q 190 1072 232 1072 q 120 1101 149 1072 z "},"ı":{"ha":369,"x_min":111,"x_max":258,"o":"m 111 639 l 258 639 l 258 0 l 111 0 l 111 639 z "},"Ĳ":{"ha":754,"x_min":108,"x_max":647,"o":"m 275 -122 q 386 -169 311 -169 q 451 -140 422 -169 q 479 -50 479 -111 l 479 972 l 647 972 l 647 -81 q 578 -258 647 -200 q 392 -317 508 -317 q 275 -294 332 -317 q 188 -243 218 -271 l 275 -122 m 108 972 l 275 972 l 275 0 l 108 0 l 108 972 z "},"ĳ":{"ha":728,"x_min":90,"x_max":638,"o":"m 475 828 q 461 841 475 828 q 447 893 447 854 q 475 958 447 932 q 543 985 503 985 q 610 958 583 985 q 638 893 638 932 q 610 828 638 854 q 543 801 583 801 q 475 828 503 801 m 336 -137 q 403 -174 360 -174 q 469 -61 469 -174 l 469 639 l 617 639 l 617 -90 q 563 -258 617 -200 q 408 -317 508 -317 q 265 -254 322 -317 l 336 -137 m 117 828 q 104 841 117 828 q 90 893 90 854 q 117 958 90 932 q 185 985 144 985 q 253 958 225 985 q 281 893 281 932 q 253 828 281 854 q 185 801 225 801 q 117 828 144 801 m 111 639 l 258 639 l 258 0 l 111 0 l 111 639 z "},"Ĵ":{"ha":383,"x_min":-183,"x_max":435,"o":"m -96 -122 q 15 -169 -60 -169 q 80 -140 51 -169 q 108 -50 108 -111 l 108 972 l 276 972 l 276 -81 q 206 -258 276 -199 q 19 -317 136 -317 q -96 -294 -40 -317 q -183 -243 -151 -271 l -96 -122 m 192 1200 l 50 1072 l -51 1146 l 192 1340 l 435 1146 l 333 1072 l 192 1200 z "},"ĵ":{"ha":358,"x_min":-103,"x_max":417,"o":"m -33 -137 q 33 -174 -10 -174 q 100 -61 100 -174 l 100 639 l 249 639 l 249 -90 q 195 -258 249 -200 q 42 -317 142 -317 q -103 -254 -47 -317 l -33 -137 m 175 864 l 32 736 l -69 810 l 175 1004 l 417 810 l 317 736 l 175 864 z "},"Ķ":{"ha":860,"x_min":108,"x_max":856,"o":"m 638 972 l 836 972 l 425 517 l 856 0 l 654 0 l 276 454 l 276 0 l 108 0 l 108 972 l 276 972 l 276 567 l 638 972 m 453 -83 l 606 -126 l 443 -474 l 331 -443 l 453 -83 z "},"ķ":{"ha":688,"x_min":90,"x_max":683,"o":"m 472 639 l 656 639 l 381 375 l 683 0 l 501 0 l 238 325 l 238 0 l 90 0 l 90 1083 l 238 1083 l 238 414 l 472 639 m 358 -83 l 510 -126 l 349 -474 l 236 -443 l 358 -83 z "},"ĸ":{"ha":688,"x_min":90,"x_max":683,"o":"m 472 639 l 656 639 l 381 375 l 683 0 l 501 0 l 238 325 l 238 0 l 90 0 l 90 639 l 238 639 l 238 414 l 472 639 z "},"Ĺ":{"ha":668,"x_min":108,"x_max":658,"o":"m 108 972 l 272 972 l 272 147 l 658 147 l 658 0 l 108 0 l 108 972 m 581 1281 l 331 1072 l 246 1122 l 454 1344 l 581 1281 z "},"ĺ":{"ha":342,"x_min":33,"x_max":369,"o":"m 96 1083 l 247 1083 l 247 0 l 96 0 l 96 1083 m 369 1375 l 119 1167 l 33 1215 l 242 1438 l 369 1375 z "},"Ļ":{"ha":668,"x_min":108,"x_max":658,"o":"m 108 972 l 272 972 l 272 147 l 658 147 l 658 0 l 108 0 l 108 972 m 368 -83 l 519 -126 l 358 -474 l 246 -443 l 368 -83 z "},"ļ":{"ha":342,"x_min":35,"x_max":308,"o":"m 96 1083 l 247 1083 l 247 0 l 96 0 l 96 1083 m 157 -83 l 308 -126 l 146 -474 l 35 -443 l 157 -83 z "},"Ľ":{"ha":668,"x_min":108,"x_max":658,"o":"m 108 972 l 272 972 l 272 147 l 658 147 l 658 0 l 108 0 l 108 972 m 482 989 l 633 947 l 471 600 l 360 631 l 482 989 z "},"ľ":{"ha":342,"x_min":96,"x_max":589,"o":"m 96 1083 l 247 1083 l 247 0 l 96 0 l 96 1083 m 439 1083 l 589 1040 l 428 693 l 317 724 l 439 1083 z "},"Ŀ":{"ha":668,"x_min":108,"x_max":658,"o":"m 108 972 l 272 972 l 272 147 l 658 147 l 658 0 l 108 0 l 108 972 m 424 509 q 410 523 424 509 q 396 578 396 538 q 424 647 396 618 q 494 675 453 675 q 564 647 536 675 q 592 578 592 618 q 564 509 592 538 q 494 481 536 481 q 424 509 453 481 z "},"ŀ":{"ha":572,"x_min":96,"x_max":517,"o":"m 96 1083 l 247 1083 l 247 0 l 96 0 l 96 1083 m 348 503 q 334 518 348 503 q 319 572 319 532 q 348 641 319 613 q 418 669 376 669 q 488 641 460 669 q 517 572 517 613 q 488 503 517 532 q 418 475 460 475 q 348 503 376 475 z "},"Ł":{"ha":668,"x_min":61,"x_max":558,"o":"m 85 831 l 156 860 l 228 549 l 465 653 l 486 531 l 256 431 l 290 283 l 558 83 l 483 0 l 157 243 l 208 299 l 185 399 l 82 354 l 61 475 l 157 517 l 85 831 z "},"ł":{"ha":342,"x_min":22,"x_max":331,"o":"m 72 914 l 139 943 l 197 626 l 331 568 l 283 511 l 213 542 l 271 221 l 206 192 l 135 576 l 22 625 l 69 682 l 119 660 l 72 914 z "},"Ń":{"ha":1086,"x_min":108,"x_max":979,"o":"m 818 972 l 979 972 l 979 -49 l 269 643 l 269 0 l 108 0 l 108 1021 l 818 328 l 818 972 m 739 1271 l 489 1063 l 404 1111 l 613 1333 l 739 1271 z "},"ń":{"ha":757,"x_min":96,"x_max":661,"o":"m 507 389 q 389 532 507 532 q 286 492 325 532 q 247 389 247 453 l 247 0 l 96 0 l 96 639 l 247 639 l 247 551 q 439 653 315 653 q 603 590 546 653 q 661 406 661 526 l 661 0 l 507 0 l 507 389 m 575 944 l 325 736 l 242 785 l 450 1007 l 575 944 z "},"Ņ":{"ha":1086,"x_min":108,"x_max":979,"o":"m 818 972 l 979 972 l 979 -49 l 269 643 l 269 0 l 108 0 l 108 1021 l 818 328 l 818 972 m 535 -58 l 685 -103 l 524 -450 l 413 -419 l 535 -58 z "},"ņ":{"ha":757,"x_min":96,"x_max":661,"o":"m 507 389 q 389 532 507 532 q 286 492 325 532 q 247 389 247 453 l 247 0 l 96 0 l 96 639 l 247 639 l 247 551 q 439 653 315 653 q 603 590 546 653 q 661 406 661 526 l 661 0 l 507 0 l 507 389 m 364 -83 l 514 -126 l 353 -474 l 242 -443 l 364 -83 z "},"Ň":{"ha":1086,"x_min":108,"x_max":979,"o":"m 818 972 l 979 972 l 979 -49 l 269 643 l 269 0 l 108 0 l 108 1021 l 818 328 l 818 972 m 542 1235 l 683 1361 l 785 1289 l 542 1094 l 299 1289 l 400 1361 l 542 1235 z "},"ň":{"ha":757,"x_min":96,"x_max":661,"o":"m 507 389 q 389 532 507 532 q 286 492 325 532 q 247 389 247 453 l 247 0 l 96 0 l 96 639 l 247 639 l 247 551 q 439 653 315 653 q 603 590 546 653 q 661 406 661 526 l 661 0 l 507 0 l 507 389 m 378 878 l 519 1004 l 621 931 l 378 736 l 135 931 l 236 1004 l 378 878 z "},"ŉ":{"ha":944,"x_min":90,"x_max":849,"o":"m 694 389 q 575 532 694 532 q 472 492 511 532 q 433 389 433 453 l 433 0 l 283 0 l 283 639 l 433 639 l 433 550 q 626 653 500 653 q 791 590 733 653 q 849 406 849 526 l 849 0 l 694 0 l 694 389 m 169 972 l 336 972 l 196 639 l 90 639 l 169 972 z "},"Ō":{"ha":1114,"x_min":53,"x_max":1063,"o":"m 319 734 q 273 685 319 734 q 226 486 226 636 q 319 238 226 336 q 557 140 413 140 q 794 238 701 140 q 888 486 888 336 q 795 734 888 636 q 557 832 703 832 q 319 734 413 832 m 53 486 q 197 846 53 703 q 557 989 340 989 q 919 847 775 989 q 1063 486 1063 704 q 919 124 1063 268 q 557 -21 775 -21 q 196 124 339 -21 q 53 486 53 268 m 308 1072 l 308 1208 l 806 1208 l 806 1072 l 308 1072 z "},"ō":{"ha":782,"x_min":47,"x_max":736,"o":"m 145 79 q 96 126 145 79 q 47 319 47 172 q 145 560 47 467 q 392 653 243 653 q 638 560 540 653 q 736 319 736 467 q 638 79 736 172 q 392 -14 540 -14 q 145 79 243 -14 m 256 465 q 228 436 256 465 q 201 319 201 408 q 256 174 201 231 q 392 118 310 118 q 528 174 474 118 q 582 319 582 231 q 528 465 582 408 q 392 521 474 521 q 256 465 310 521 m 142 736 l 142 872 l 640 872 l 640 736 l 142 736 z "},"Ŏ":{"ha":1114,"x_min":53,"x_max":1063,"o":"m 319 734 q 273 685 319 734 q 226 486 226 636 q 319 238 226 336 q 557 140 413 140 q 794 238 701 140 q 888 486 888 336 q 795 734 888 636 q 557 832 703 832 q 319 734 413 832 m 53 486 q 197 846 53 703 q 557 989 340 989 q 919 847 775 989 q 1063 486 1063 704 q 919 124 1063 268 q 557 -21 775 -21 q 196 124 339 -21 q 53 486 53 268 m 335 1271 l 449 1271 q 475 1204 449 1233 q 557 1175 501 1175 q 640 1204 613 1175 q 667 1271 667 1233 l 781 1271 q 721 1131 781 1189 q 557 1072 661 1072 q 394 1131 453 1072 q 335 1271 335 1189 z "},"ŏ":{"ha":782,"x_min":47,"x_max":736,"o":"m 145 79 q 96 126 145 79 q 47 319 47 172 q 145 560 47 467 q 392 653 243 653 q 638 560 540 653 q 736 319 736 467 q 638 79 736 172 q 392 -14 540 -14 q 145 79 243 -14 m 256 465 q 228 436 256 465 q 201 319 201 408 q 256 174 201 231 q 392 118 310 118 q 528 174 474 118 q 582 319 582 231 q 528 465 582 408 q 392 521 474 521 q 256 465 310 521 m 168 935 l 283 935 q 310 868 283 897 q 392 839 336 839 q 474 868 447 839 q 500 935 500 897 l 614 935 q 555 794 614 853 q 392 736 496 736 q 228 794 288 736 q 168 935 168 853 z "},"Œ":{"ha":1368,"x_min":53,"x_max":1292,"o":"m 697 822 l 558 822 q 311 732 401 822 q 221 486 221 642 q 311 240 221 331 q 558 150 401 150 l 697 150 l 697 822 m 1292 144 l 1292 0 l 542 0 q 190 135 328 0 q 53 486 53 271 q 190 838 53 703 q 542 972 328 972 l 1290 972 l 1290 828 l 860 828 l 860 592 l 1263 592 l 1263 450 l 860 450 l 860 144 l 1292 144 z "},"œ":{"ha":1250,"x_min":49,"x_max":1201,"o":"m 707 388 l 1039 388 q 991 499 1031 458 q 883 539 951 539 q 765 498 814 539 q 707 388 715 457 m 140 77 q 94 123 140 77 q 49 319 49 168 q 140 562 49 471 q 365 653 231 653 q 527 603 460 653 q 625 465 594 554 q 738 602 661 551 q 914 653 814 653 q 1117 562 1033 653 q 1201 325 1201 471 q 1200 285 1201 296 l 704 285 q 760 154 713 200 q 883 108 807 108 q 1067 211 1000 108 l 1196 158 q 897 -14 1090 -14 q 732 36 804 -14 q 625 172 660 86 q 528 35 594 83 q 365 -14 461 -14 q 140 77 231 -14 m 253 467 q 227 441 253 467 q 200 319 200 414 q 253 172 200 225 q 389 118 307 118 q 509 172 460 118 q 558 319 558 225 q 509 467 558 414 q 389 521 460 521 q 253 467 307 521 z "},"Ŕ":{"ha":826,"x_min":108,"x_max":817,"o":"m 272 503 l 401 503 q 538 546 488 503 q 589 667 589 589 q 538 788 589 744 q 401 831 488 831 l 272 831 l 272 503 m 272 368 l 272 0 l 108 0 l 108 972 l 408 972 q 663 890 567 972 q 758 669 758 807 q 701 490 758 564 q 542 386 644 417 l 817 0 l 618 0 l 372 368 l 272 368 m 599 1281 l 349 1072 l 264 1122 l 472 1344 l 599 1281 z "},"ŕ":{"ha":514,"x_min":96,"x_max":508,"o":"m 435 478 q 350 513 392 513 q 244 360 244 513 l 244 0 l 96 0 l 96 639 l 244 639 l 244 561 q 390 653 304 653 q 508 606 467 653 l 435 478 m 499 944 l 249 736 l 165 786 l 374 1008 l 499 944 z "},"Ŗ":{"ha":826,"x_min":108,"x_max":817,"o":"m 272 503 l 401 503 q 538 546 488 503 q 589 667 589 589 q 538 788 589 744 q 401 831 488 831 l 272 831 l 272 503 m 272 368 l 272 0 l 108 0 l 108 972 l 408 972 q 663 890 567 972 q 758 669 758 807 q 701 490 758 564 q 542 386 644 417 l 817 0 l 618 0 l 372 368 l 272 368 m 447 -83 l 599 -126 l 438 -474 l 325 -443 l 447 -83 z "},"ŗ":{"ha":514,"x_min":33,"x_max":508,"o":"m 435 478 q 350 513 392 513 q 244 360 244 513 l 244 0 l 96 0 l 96 639 l 244 639 l 244 561 q 390 653 304 653 q 508 606 467 653 l 435 478 m 156 -83 l 307 -126 l 146 -474 l 33 -443 l 156 -83 z "},"Ř":{"ha":826,"x_min":108,"x_max":817,"o":"m 272 503 l 401 503 q 538 546 488 503 q 589 667 589 589 q 538 788 589 744 q 401 831 488 831 l 272 831 l 272 503 m 272 368 l 272 0 l 108 0 l 108 972 l 408 972 q 663 890 567 972 q 758 669 758 807 q 701 490 758 564 q 542 386 644 417 l 817 0 l 618 0 l 372 368 l 272 368 m 386 1214 l 529 1340 l 629 1267 l 386 1072 l 143 1267 l 244 1340 l 386 1214 z "},"ř":{"ha":514,"x_min":58,"x_max":544,"o":"m 435 478 q 350 513 392 513 q 244 360 244 513 l 244 0 l 96 0 l 96 639 l 244 639 l 244 561 q 390 653 304 653 q 508 606 467 653 l 435 478 m 301 878 l 443 1004 l 544 931 l 301 736 l 58 931 l 158 1004 l 301 878 z "},"Ś":{"ha":804,"x_min":53,"x_max":744,"o":"m 178 328 q 285 178 226 228 q 425 128 343 128 q 535 162 497 128 q 572 260 572 196 q 559 318 572 292 q 529 361 546 344 q 478 397 513 378 q 422 424 444 415 q 356 450 399 433 q 104 735 104 543 q 190 919 104 849 q 410 989 276 989 q 615 926 532 989 q 732 779 699 864 l 604 700 q 524 804 568 767 q 415 842 481 842 q 313 810 350 842 q 275 726 275 779 q 292 673 275 697 q 346 627 308 649 q 413 593 383 606 q 499 560 442 581 q 744 267 744 471 q 659 56 744 132 q 419 -21 574 -21 q 197 52 296 -21 q 53 246 99 125 l 178 328 m 660 1281 l 410 1072 l 325 1122 l 533 1344 l 660 1281 z "},"ś":{"ha":589,"x_min":31,"x_max":551,"o":"m 122 231 q 206 140 157 172 q 306 108 256 108 q 397 174 397 108 q 393 197 397 186 q 378 218 389 208 q 360 235 368 228 q 334 250 351 242 q 307 263 317 258 q 274 276 297 267 q 243 289 251 285 q 178 319 204 306 q 124 356 153 333 q 82 408 96 378 q 68 478 68 439 q 135 606 68 558 q 294 653 201 653 q 441 621 372 653 q 542 540 510 589 l 458 451 q 384 506 429 485 q 300 528 339 528 q 215 471 215 528 q 219 453 215 461 q 234 437 224 444 q 254 423 244 429 q 281 409 264 417 q 310 397 299 401 q 343 383 322 392 q 375 371 364 375 q 551 181 551 300 q 313 -19 551 -19 q 142 26 219 -19 q 31 144 64 72 l 122 231 m 544 944 l 294 736 l 208 785 l 417 1007 l 544 944 z "},"Ŝ":{"ha":804,"x_min":53,"x_max":744,"o":"m 178 328 q 285 178 226 228 q 425 128 343 128 q 535 162 497 128 q 572 260 572 196 q 559 318 572 292 q 529 361 546 344 q 478 397 513 378 q 422 424 444 415 q 356 450 399 433 q 104 735 104 543 q 190 919 104 849 q 410 989 276 989 q 615 926 532 989 q 732 779 699 864 l 604 700 q 524 804 568 767 q 415 842 481 842 q 313 810 350 842 q 275 726 275 779 q 292 673 275 697 q 346 627 308 649 q 413 593 383 606 q 499 560 442 581 q 744 267 744 471 q 659 56 744 132 q 419 -21 574 -21 q 197 52 296 -21 q 53 246 99 125 l 178 328 m 410 1200 l 268 1072 l 167 1146 l 410 1340 l 653 1146 l 553 1072 l 410 1200 z "},"ŝ":{"ha":589,"x_min":31,"x_max":551,"o":"m 122 231 q 206 140 157 172 q 306 108 256 108 q 397 174 397 108 q 393 197 397 186 q 378 218 389 208 q 360 235 368 228 q 334 250 351 242 q 307 263 317 258 q 274 276 297 267 q 243 289 251 285 q 178 319 204 306 q 124 356 153 333 q 82 408 96 378 q 68 478 68 439 q 135 606 68 558 q 294 653 201 653 q 441 621 372 653 q 542 540 510 589 l 458 451 q 384 506 429 485 q 300 528 339 528 q 215 471 215 528 q 219 453 215 461 q 234 437 224 444 q 254 423 244 429 q 281 409 264 417 q 310 397 299 401 q 343 383 322 392 q 375 371 364 375 q 551 181 551 300 q 313 -19 551 -19 q 142 26 219 -19 q 31 144 64 72 l 122 231 m 301 864 l 158 736 l 58 810 l 301 1004 l 544 810 l 443 736 l 301 864 z "},"Ş":{"ha":804,"x_min":53,"x_max":744,"o":"m 178 328 q 285 178 226 228 q 425 128 343 128 q 535 162 497 128 q 572 260 572 196 q 559 318 572 292 q 529 361 546 344 q 478 397 513 378 q 422 424 444 415 q 356 450 399 433 q 104 735 104 543 q 190 919 104 849 q 410 989 276 989 q 615 926 532 989 q 732 779 699 864 l 604 700 q 524 804 568 767 q 415 842 481 842 q 313 810 350 842 q 275 726 275 779 q 292 673 275 697 q 346 627 308 649 q 413 593 383 606 q 499 560 442 581 q 744 267 744 471 q 670 66 744 142 q 460 -19 596 -10 l 421 -79 q 450 -78 431 -78 q 526 -109 492 -78 q 561 -194 561 -140 q 513 -297 561 -260 q 400 -333 465 -333 q 244 -279 311 -333 l 299 -208 q 389 -242 342 -242 q 461 -189 461 -242 q 386 -142 461 -142 q 292 -165 333 -142 l 363 -17 q 176 69 257 -1 q 53 246 94 139 l 178 328 z "},"ş":{"ha":589,"x_min":31,"x_max":551,"o":"m 122 231 q 206 140 157 172 q 306 108 256 108 q 397 174 397 108 q 393 197 397 186 q 378 218 389 208 q 360 235 368 228 q 334 250 351 242 q 307 263 317 258 q 274 276 297 267 q 243 289 251 285 q 178 319 204 306 q 124 356 153 333 q 82 408 96 378 q 68 478 68 439 q 135 606 68 558 q 294 653 201 653 q 441 621 372 653 q 542 540 510 589 l 458 451 q 384 506 429 485 q 300 528 339 528 q 215 471 215 528 q 219 453 215 461 q 234 437 224 444 q 254 423 244 429 q 281 409 264 417 q 310 397 299 401 q 343 383 322 392 q 375 371 364 375 q 551 181 551 300 q 343 -18 551 -4 l 307 -74 q 336 -72 317 -72 q 413 -103 378 -72 q 449 -189 449 -135 q 400 -291 449 -254 q 286 -328 351 -328 q 133 -275 199 -328 l 185 -203 q 275 -236 228 -236 q 347 -183 347 -236 q 271 -136 347 -136 q 179 -160 221 -136 l 249 -14 q 117 43 175 0 q 31 144 58 86 l 122 231 z "},"Š":{"ha":804,"x_min":53,"x_max":744,"o":"m 178 328 q 285 178 226 228 q 425 128 343 128 q 535 162 497 128 q 572 260 572 196 q 559 318 572 292 q 529 361 546 344 q 478 397 513 378 q 422 424 444 415 q 356 450 399 433 q 104 735 104 543 q 190 919 104 849 q 410 989 276 989 q 615 926 532 989 q 732 779 699 864 l 604 700 q 524 804 568 767 q 415 842 481 842 q 313 810 350 842 q 275 726 275 779 q 292 673 275 697 q 346 627 308 649 q 413 593 383 606 q 499 560 442 581 q 744 267 744 471 q 659 56 744 132 q 419 -21 574 -21 q 197 52 296 -21 q 53 246 99 125 l 178 328 m 410 1214 l 553 1340 l 653 1267 l 410 1072 l 167 1267 l 268 1340 l 410 1214 z "},"š":{"ha":589,"x_min":31,"x_max":551,"o":"m 122 231 q 206 140 157 172 q 306 108 256 108 q 397 174 397 108 q 393 197 397 186 q 378 218 389 208 q 360 235 368 228 q 334 250 351 242 q 307 263 317 258 q 274 276 297 267 q 243 289 251 285 q 178 319 204 306 q 124 356 153 333 q 82 408 96 378 q 68 478 68 439 q 135 606 68 558 q 294 653 201 653 q 441 621 372 653 q 542 540 510 589 l 458 451 q 384 506 429 485 q 300 528 339 528 q 215 471 215 528 q 219 453 215 461 q 234 437 224 444 q 254 423 244 429 q 281 409 264 417 q 310 397 299 401 q 343 383 322 392 q 375 371 364 375 q 551 181 551 300 q 313 -19 551 -19 q 142 26 219 -19 q 31 144 64 72 l 122 231 m 294 869 l 436 997 l 538 924 l 294 729 l 51 924 l 151 997 l 294 869 z "},"Ÿ":{"ha":833,"x_min":3,"x_max":831,"o":"m 643 972 l 831 972 l 500 410 l 500 0 l 333 0 l 333 410 l 3 972 l 192 972 l 417 556 l 643 972 m 506 1101 q 492 1115 506 1101 q 478 1169 478 1129 q 506 1238 478 1210 q 575 1267 533 1267 q 645 1238 617 1267 q 674 1169 674 1210 q 645 1101 674 1129 q 575 1072 617 1072 q 506 1101 533 1072 m 189 1101 q 175 1115 189 1101 q 161 1169 161 1129 q 189 1238 161 1210 q 258 1267 217 1267 q 329 1238 300 1267 q 358 1169 358 1210 q 329 1101 358 1129 q 258 1072 300 1072 q 189 1101 217 1072 z "},"Ž":{"ha":799,"x_min":17,"x_max":775,"o":"m 61 821 l 61 972 l 775 972 l 283 147 l 738 147 l 738 0 l 17 0 l 506 821 l 61 821 m 417 1214 l 560 1340 l 661 1267 l 417 1072 l 175 1267 l 275 1340 l 417 1214 z "},"ž":{"ha":669,"x_min":21,"x_max":653,"o":"m 393 500 l 69 500 l 69 639 l 653 639 l 289 139 l 618 139 l 618 0 l 21 0 l 393 500 m 361 878 l 503 1003 l 604 931 l 361 736 l 118 931 l 219 1003 l 361 878 z "},"Ȓ":{"ha":826,"x_min":108,"x_max":817,"o":"m 272 503 l 401 503 q 538 546 488 503 q 589 667 589 589 q 538 788 589 744 q 401 831 488 831 l 272 831 l 272 503 m 272 368 l 272 0 l 108 0 l 108 972 l 408 972 q 663 890 567 972 q 758 669 758 807 q 701 490 758 564 q 542 386 644 417 l 817 0 l 618 0 l 372 368 l 272 368 m 188 1072 q 247 1213 188 1154 q 411 1271 307 1271 q 574 1213 515 1271 q 633 1072 633 1154 l 519 1072 q 493 1139 519 1110 q 411 1168 467 1168 q 329 1139 356 1168 q 303 1072 303 1110 l 188 1072 z "},"ȓ":{"ha":514,"x_min":79,"x_max":525,"o":"m 435 478 q 350 513 392 513 q 244 360 244 513 l 244 0 l 96 0 l 96 639 l 244 639 l 244 561 q 390 653 304 653 q 508 606 467 653 l 435 478 m 79 736 q 139 876 79 818 q 303 935 199 935 q 466 876 407 935 q 525 736 525 818 l 411 736 q 385 803 411 774 q 303 832 358 832 q 220 803 247 832 q 193 736 193 774 l 79 736 z "},"Ș":{"ha":804,"x_min":53,"x_max":744,"o":"m 178 328 q 285 178 226 228 q 425 128 343 128 q 535 162 497 128 q 572 260 572 196 q 559 318 572 292 q 529 361 546 344 q 478 397 513 378 q 422 424 444 415 q 356 450 399 433 q 104 735 104 543 q 190 919 104 849 q 410 989 276 989 q 615 926 532 989 q 732 779 699 864 l 604 700 q 524 804 568 767 q 415 842 481 842 q 313 810 350 842 q 275 726 275 779 q 292 673 275 697 q 346 627 308 649 q 413 593 383 606 q 499 560 442 581 q 744 267 744 471 q 659 56 744 132 q 419 -21 574 -21 q 197 52 296 -21 q 53 246 99 125 l 178 328 m 390 -97 l 542 -140 l 381 -487 l 268 -457 l 390 -97 z "},"ș":{"ha":589,"x_min":31,"x_max":551,"o":"m 122 231 q 206 140 157 172 q 306 108 256 108 q 397 174 397 108 q 393 197 397 186 q 378 218 389 208 q 360 235 368 228 q 334 250 351 242 q 307 263 317 258 q 274 276 297 267 q 243 289 251 285 q 178 319 204 306 q 124 356 153 333 q 82 408 96 378 q 68 478 68 439 q 135 606 68 558 q 294 653 201 653 q 441 621 372 653 q 542 540 510 589 l 458 451 q 384 506 429 485 q 300 528 339 528 q 215 471 215 528 q 219 453 215 461 q 234 437 224 444 q 254 423 244 429 q 281 409 264 417 q 310 397 299 401 q 343 383 322 392 q 375 371 364 375 q 551 181 551 300 q 313 -19 551 -19 q 142 26 219 -19 q 31 144 64 72 l 122 231 m 285 -96 l 435 -139 l 274 -486 l 163 -456 l 285 -96 z "},"ȷ":{"ha":358,"x_min":-103,"x_max":249,"o":"m -33 -137 q 33 -174 -10 -174 q 100 -61 100 -174 l 100 639 l 249 639 l 249 -90 q 195 -258 249 -200 q 42 -317 142 -317 q -103 -254 -47 -317 l -33 -137 z "},"ˆ":{"ha":667,"x_min":90,"x_max":576,"o":"m 333 888 l 192 761 l 90 833 l 333 1028 l 576 833 l 475 761 l 333 888 z "},"ˇ":{"ha":667,"x_min":90,"x_max":576,"o":"m 333 922 l 475 1049 l 576 975 l 333 781 l 90 975 l 192 1049 l 333 922 z "},"˘":{"ha":758,"x_min":156,"x_max":603,"o":"m 156 1181 l 271 1181 q 297 1114 271 1143 q 379 1085 324 1085 q 461 1114 435 1085 q 488 1181 488 1143 l 603 1181 q 543 1041 603 1099 q 379 983 483 983 q 215 1041 275 983 q 156 1181 156 1099 z "},"˙":{"ha":417,"x_min":110,"x_max":307,"o":"m 138 1042 q 124 1057 138 1042 q 110 1111 110 1071 q 138 1180 110 1151 q 208 1208 167 1208 q 278 1180 250 1208 q 307 1111 307 1151 q 278 1042 307 1071 q 208 1014 250 1014 q 138 1042 167 1014 z "},"˚":{"ha":414,"x_min":53,"x_max":361,"o":"m 98 975 q 75 996 98 975 q 53 1082 53 1017 q 98 1188 53 1147 q 207 1229 143 1229 q 316 1188 271 1229 q 361 1082 361 1147 q 316 975 361 1017 q 207 933 271 933 q 98 975 143 933 m 159 1133 q 149 1124 159 1133 q 139 1082 139 1114 q 159 1031 139 1050 q 207 1011 179 1011 q 255 1031 235 1011 q 275 1082 275 1050 q 255 1133 275 1114 q 207 1153 235 1153 q 159 1133 179 1153 z "},"˛":{"ha":361,"x_min":19,"x_max":315,"o":"m 269 -169 l 315 -250 q 186 -306 274 -306 q 63 -269 107 -306 q 19 -167 19 -232 q 206 35 19 -61 l 263 0 q 174 -63 208 -25 q 140 -136 140 -101 q 200 -197 140 -197 q 269 -169 239 -197 z "},"˜":{"ha":736,"x_min":125,"x_max":618,"o":"m 125 875 q 180 961 136 926 q 278 996 224 996 q 373 962 325 996 q 457 928 421 928 q 540 997 497 928 l 618 919 q 555 844 600 878 q 456 811 510 811 q 363 846 417 811 q 276 881 308 881 q 224 857 240 881 q 208 810 208 833 l 125 875 z "},"π":{"ha":785,"x_min":42,"x_max":729,"o":"m 42 639 l 729 639 l 729 507 l 618 507 l 618 217 q 636 137 618 154 q 692 119 654 119 l 692 -12 q 523 22 574 -12 q 472 168 472 57 l 472 507 l 271 507 l 271 0 l 125 0 l 125 507 l 42 507 l 42 639 z "},"‐":{"ha":299,"x_min":7,"x_max":292,"o":"m 7 263 l 7 397 l 292 397 l 292 263 l 7 263 z "},"‒":{"ha":840,"x_min":97,"x_max":738,"o":"m 97 263 l 97 397 l 738 397 l 738 263 l 97 263 z "},"–":{"ha":1051,"x_min":97,"x_max":951,"o":"m 97 263 l 97 397 l 951 397 l 951 263 l 97 263 z "},"—":{"ha":1264,"x_min":97,"x_max":1165,"o":"m 97 263 l 97 397 l 1165 397 l 1165 263 l 97 263 z "},"‘":{"ha":413,"x_min":97,"x_max":344,"o":"m 264 639 l 97 639 l 238 972 l 344 972 l 264 639 z "},"’":{"ha":413,"x_min":69,"x_max":317,"o":"m 150 972 l 317 972 l 175 639 l 69 639 l 150 972 z "},"‚":{"ha":413,"x_min":83,"x_max":331,"o":"m 164 111 l 331 111 l 189 -222 l 83 -222 l 164 111 z "},"“":{"ha":708,"x_min":97,"x_max":639,"o":"m 264 639 l 97 639 l 238 972 l 344 972 l 264 639 m 558 639 l 392 639 l 533 972 l 639 972 l 558 639 z "},"”":{"ha":708,"x_min":69,"x_max":611,"o":"m 150 972 l 317 972 l 175 639 l 69 639 l 150 972 m 444 972 l 611 972 l 471 639 l 364 639 l 444 972 z "},"†":{"ha":826,"x_min":125,"x_max":701,"o":"m 340 972 l 486 972 l 486 750 l 701 750 l 701 618 l 486 618 l 486 -208 l 340 -208 l 340 618 l 125 618 l 125 750 l 340 750 l 340 972 z "},"‡":{"ha":826,"x_min":125,"x_max":701,"o":"m 340 972 l 486 972 l 486 750 l 701 750 l 701 618 l 486 618 l 486 188 l 701 188 l 701 56 l 486 56 l 486 -208 l 340 -208 l 340 56 l 125 56 l 125 188 l 340 188 l 340 618 l 125 618 l 125 750 l 340 750 l 340 972 z "},"…":{"ha":1264,"x_min":117,"x_max":1146,"o":"m 144 2 q 131 16 144 2 q 117 71 117 31 q 144 140 117 111 q 214 168 172 168 q 284 140 256 168 q 313 71 313 111 q 284 2 313 31 q 214 -26 256 -26 q 144 2 172 -26 m 561 2 q 547 16 561 2 q 533 71 533 31 q 561 140 533 111 q 631 168 589 168 q 701 140 672 168 q 729 71 729 111 q 701 2 729 31 q 631 -26 672 -26 q 561 2 589 -26 m 978 2 q 964 16 978 2 q 950 71 950 31 q 978 140 950 111 q 1047 168 1006 168 q 1117 140 1089 168 q 1146 71 1146 111 q 1117 2 1146 31 q 1047 -26 1089 -26 q 978 2 1006 -26 z "},"‰":{"ha":1706,"x_min":42,"x_max":1664,"o":"m 1258 49 q 1225 83 1258 49 q 1192 217 1192 117 q 1258 385 1192 317 q 1428 453 1325 453 q 1597 385 1531 453 q 1664 217 1664 317 q 1597 49 1664 117 q 1428 -19 1531 -19 q 1258 49 1325 -19 m 1349 299 q 1334 282 1349 299 q 1319 217 1319 265 q 1349 135 1319 168 q 1428 101 1379 101 q 1506 135 1476 101 q 1536 217 1536 168 q 1506 299 1536 265 q 1428 333 1476 333 q 1349 299 1379 333 m 108 588 q 75 622 108 588 q 42 756 42 656 q 108 924 42 856 q 278 992 175 992 q 448 923 381 992 q 515 756 515 854 q 448 588 515 657 q 278 519 381 519 q 108 588 175 519 m 199 838 q 184 821 199 838 q 169 756 169 804 q 199 673 169 707 q 278 639 229 639 q 356 673 326 639 q 386 756 386 707 q 356 838 386 804 q 278 871 326 871 q 199 838 229 871 m 689 49 q 656 83 689 49 q 622 217 622 117 q 689 385 622 317 q 858 453 756 453 q 1028 385 961 453 q 1094 217 1094 317 q 1028 49 1094 117 q 858 -19 961 -19 q 689 49 756 -19 m 780 299 q 765 282 780 299 q 750 217 750 265 q 780 135 750 168 q 858 101 810 101 q 937 135 907 101 q 967 217 967 168 q 937 299 967 265 q 858 333 907 333 q 780 299 810 333 m 831 972 l 981 972 l 306 0 l 157 0 l 831 972 z "},"‱":{"ha":2275,"x_min":42,"x_max":2233,"o":"m 1828 49 q 1794 83 1828 49 q 1761 217 1761 117 q 1828 385 1761 317 q 1997 453 1894 453 q 2167 385 2100 453 q 2233 217 2233 317 q 2167 49 2233 117 q 1997 -19 2100 -19 q 1828 49 1894 -19 m 1919 299 q 1904 282 1919 299 q 1889 217 1889 265 q 1919 135 1889 168 q 1997 101 1949 101 q 2076 135 2046 101 q 2106 217 2106 168 q 2076 299 2106 265 q 1997 333 2046 333 q 1919 299 1949 333 m 1258 49 q 1225 83 1258 49 q 1192 217 1192 117 q 1258 385 1192 317 q 1428 453 1325 453 q 1597 385 1531 453 q 1664 217 1664 317 q 1597 49 1664 117 q 1428 -19 1531 -19 q 1258 49 1325 -19 m 1349 299 q 1334 282 1349 299 q 1319 217 1319 265 q 1349 135 1319 168 q 1428 101 1379 101 q 1506 135 1476 101 q 1536 217 1536 168 q 1506 299 1536 265 q 1428 333 1476 333 q 1349 299 1379 333 m 108 588 q 75 622 108 588 q 42 756 42 656 q 108 924 42 856 q 278 992 175 992 q 448 923 381 992 q 515 756 515 854 q 448 588 515 657 q 278 519 381 519 q 108 588 175 519 m 199 838 q 184 821 199 838 q 169 756 169 804 q 199 673 169 707 q 278 639 229 639 q 356 673 326 639 q 386 756 386 707 q 356 838 386 804 q 278 871 326 871 q 199 838 229 871 m 689 49 q 656 83 689 49 q 622 217 622 117 q 689 385 622 317 q 858 453 756 453 q 1028 385 961 453 q 1094 217 1094 317 q 1028 49 1094 117 q 858 -19 961 -19 q 689 49 756 -19 m 780 299 q 765 282 780 299 q 750 217 750 265 q 780 135 750 168 q 858 101 810 101 q 937 135 907 101 q 967 217 967 168 q 937 299 967 265 q 858 333 907 333 q 780 299 810 333 m 831 972 l 981 972 l 306 0 l 157 0 l 831 972 z "},"‹":{"ha":486,"x_min":49,"x_max":400,"o":"m 192 360 l 400 90 l 306 17 l 49 354 l 306 692 l 400 618 l 192 360 z "},"›":{"ha":486,"x_min":86,"x_max":438,"o":"m 294 349 l 86 618 l 181 692 l 438 354 l 181 17 l 86 90 l 294 349 z "},"‽":{"ha":813,"x_min":76,"x_max":733,"o":"m 286 706 l 450 706 l 435 496 q 546 571 504 519 q 588 683 588 622 q 535 813 588 767 q 392 858 482 858 q 188 740 254 858 l 76 822 q 408 990 188 990 q 639 907 544 990 q 733 694 733 824 q 641 492 733 574 q 428 397 549 410 l 418 253 l 318 253 l 286 706 m 301 1 q 287 15 301 1 q 272 68 272 29 q 301 134 272 107 q 372 161 331 161 q 442 134 414 161 q 471 68 471 107 q 442 1 471 28 q 372 -26 414 -26 q 301 1 331 -26 z "},"⁄":{"ha":993,"x_min":83,"x_max":928,"o":"m 806 972 l 928 972 l 206 0 l 83 0 l 806 972 z "},"⁰":{"ha":526,"x_min":36,"x_max":490,"o":"m 169 834 q 151 805 169 834 q 133 681 133 775 q 169 527 133 586 q 264 468 204 468 q 359 527 324 468 q 394 681 394 586 q 359 834 394 775 q 264 893 324 893 q 169 834 204 893 m 100 463 q 68 504 100 463 q 36 681 36 546 q 100 899 36 815 q 264 982 164 982 q 428 899 365 982 q 490 681 490 817 q 428 462 490 544 q 264 379 365 379 q 100 463 164 379 z "},"⁴":{"ha":558,"x_min":33,"x_max":514,"o":"m 328 578 l 328 797 l 178 578 l 328 578 m 422 500 l 422 389 l 322 389 l 322 500 l 33 500 l 364 972 l 422 972 l 422 586 l 514 586 l 514 500 l 422 500 z "},"⁵":{"ha":511,"x_min":39,"x_max":472,"o":"m 472 575 q 409 428 472 481 q 256 376 346 376 q 39 481 122 376 l 96 553 q 163 492 124 517 q 243 468 203 468 q 334 499 301 468 q 367 582 367 529 q 331 664 367 633 q 243 694 296 694 q 89 647 167 694 l 167 969 l 467 969 l 467 883 l 240 883 l 204 749 q 297 771 247 771 q 422 716 371 771 q 472 575 472 661 z "},"⁶":{"ha":501,"x_min":42,"x_max":471,"o":"m 139 583 q 172 497 139 531 q 257 463 206 463 q 340 496 307 463 q 374 583 374 529 q 340 672 374 638 q 257 706 307 706 q 173 672 207 706 q 139 583 139 638 m 276 968 l 403 968 l 235 763 q 294 772 254 772 q 418 718 365 772 q 471 583 471 664 q 410 432 471 489 q 257 375 349 375 q 103 432 165 375 q 42 583 42 489 q 92 721 42 653 l 276 968 z "},"⁷":{"ha":506,"x_min":38,"x_max":474,"o":"m 38 879 l 38 972 l 474 972 l 193 389 l 89 389 l 328 879 l 38 879 z "},"⁸":{"ha":469,"x_min":38,"x_max":431,"o":"m 58 832 q 109 940 58 897 q 233 983 160 983 q 358 940 307 983 q 410 832 410 897 q 324 699 410 738 q 431 547 431 654 q 373 426 431 475 q 233 378 315 378 q 94 426 151 378 q 38 547 38 475 q 143 699 38 654 q 58 832 58 739 m 153 822 q 176 763 153 786 q 233 739 200 739 q 292 763 268 739 q 315 822 315 786 q 292 882 315 860 q 233 904 269 904 q 175 882 197 904 q 153 822 153 860 m 135 561 q 163 488 135 515 q 233 461 192 461 q 304 488 275 461 q 333 561 333 515 q 303 630 333 601 q 233 658 274 658 q 164 631 193 658 q 135 561 135 603 z "},"⁹":{"ha":499,"x_min":47,"x_max":476,"o":"m 346 690 q 363 707 346 690 q 379 778 379 724 q 346 865 379 832 q 263 899 313 899 q 178 865 211 899 q 144 778 144 831 q 178 690 144 724 q 263 656 213 656 q 346 690 313 656 m 242 393 l 117 393 l 283 599 q 224 589 264 589 q 100 643 153 589 q 47 778 47 697 q 109 929 47 872 q 263 986 171 986 q 415 929 354 986 q 476 778 476 872 q 426 640 476 708 l 242 393 z "},"₀":{"ha":526,"x_min":36,"x_max":490,"o":"m 169 445 q 151 416 169 445 q 133 292 133 386 q 169 138 133 197 q 264 79 204 79 q 359 138 324 79 q 394 292 394 197 q 359 445 394 386 q 264 504 324 504 q 169 445 204 504 m 100 74 q 68 115 100 74 q 36 292 36 157 q 100 510 36 426 q 264 593 164 593 q 428 510 365 593 q 490 292 490 428 q 428 73 490 156 q 264 -10 365 -10 q 100 74 164 -10 z "},"₁":{"ha":461,"x_min":125,"x_max":357,"o":"m 125 447 l 125 542 l 357 594 l 357 1 l 261 1 l 261 486 l 125 447 z "},"₂":{"ha":517,"x_min":36,"x_max":481,"o":"m 36 3 l 306 288 q 372 417 372 358 q 347 481 372 454 q 278 508 322 508 q 197 474 228 508 q 165 381 165 439 l 68 381 q 125 536 68 475 q 279 597 182 597 q 423 542 372 597 q 474 415 474 486 q 393 256 474 333 l 228 94 l 481 94 l 481 3 l 36 3 z "},"₃":{"ha":467,"x_min":33,"x_max":436,"o":"m 381 35 q 353 12 381 35 q 235 -11 325 -11 q 89 41 144 -11 q 33 167 33 93 l 132 167 q 161 100 132 125 q 236 75 190 75 q 309 99 282 75 q 336 167 336 124 q 301 238 336 213 q 206 264 265 264 l 206 339 q 288 365 257 339 q 319 431 319 392 q 299 488 319 467 q 239 510 278 510 q 176 486 201 510 q 151 428 151 463 l 58 428 q 109 547 58 500 q 240 593 160 593 q 371 547 322 593 q 419 435 419 501 q 317 306 419 347 q 436 156 436 268 q 381 35 436 81 z "},"₄":{"ha":561,"x_min":33,"x_max":514,"o":"m 328 189 l 328 408 l 176 189 l 328 189 m 422 111 l 422 0 l 321 0 l 321 111 l 33 111 l 363 583 l 422 583 l 422 197 l 514 197 l 514 111 l 422 111 z "},"₅":{"ha":517,"x_min":40,"x_max":474,"o":"m 474 186 q 410 40 474 92 q 257 -12 347 -12 q 40 92 124 -12 l 97 164 q 165 103 125 128 q 244 79 204 79 q 335 110 303 79 q 368 193 368 140 q 333 275 368 244 q 244 306 297 306 q 90 258 168 306 l 168 581 l 468 581 l 468 494 l 242 494 l 206 360 q 299 382 249 382 q 423 327 372 382 q 474 186 474 272 z "},"₆":{"ha":507,"x_min":43,"x_max":472,"o":"m 140 194 q 174 108 140 142 q 258 74 208 74 q 342 107 308 74 q 375 194 375 140 q 342 283 375 249 q 258 317 308 317 q 174 283 208 317 q 140 194 140 249 m 278 579 l 403 579 l 236 374 q 296 383 256 383 q 419 329 367 383 q 472 194 472 275 q 411 43 472 100 q 258 -14 350 -14 q 105 43 167 -14 q 43 194 43 100 q 93 332 43 264 l 278 579 z "},"₇":{"ha":508,"x_min":40,"x_max":475,"o":"m 40 490 l 40 583 l 475 583 l 194 0 l 90 0 l 329 490 l 40 490 z "},"₈":{"ha":472,"x_min":40,"x_max":433,"o":"m 61 443 q 112 551 61 508 q 236 594 163 594 q 361 551 310 594 q 413 443 413 508 q 326 310 413 349 q 433 158 433 265 q 376 38 433 86 q 236 -11 318 -11 q 97 38 154 -11 q 40 158 40 86 q 146 310 40 265 q 61 443 61 350 m 156 433 q 179 374 156 397 q 236 350 203 350 q 294 374 271 350 q 318 433 318 397 q 295 493 318 471 q 236 515 272 515 q 178 493 200 515 q 156 433 156 471 m 138 172 q 166 99 138 126 q 236 72 194 72 q 307 99 278 72 q 336 172 336 126 q 306 241 336 213 q 236 269 276 269 q 167 242 196 269 q 138 172 138 214 z "},"₉":{"ha":510,"x_min":35,"x_max":464,"o":"m 367 389 q 333 476 367 442 q 249 510 300 510 q 164 476 197 510 q 131 389 131 442 q 165 301 131 335 q 249 267 199 267 q 333 301 299 267 q 367 389 367 335 m 229 4 l 103 4 l 271 210 q 210 200 250 200 q 87 253 139 200 q 35 389 35 307 q 96 540 35 483 q 249 597 157 597 q 402 540 340 597 q 464 389 464 483 q 414 251 464 319 l 229 4 z "},"€":{"ha":847,"x_min":35,"x_max":747,"o":"m 35 378 l 35 465 l 114 465 l 114 486 q 117 551 114 510 l 43 551 l 43 638 l 131 638 q 277 895 168 799 q 539 992 386 992 q 747 935 649 992 l 747 761 q 539 847 658 847 q 383 792 450 847 q 288 638 317 736 l 733 638 l 733 551 l 269 551 q 267 486 267 531 l 267 465 l 700 465 l 700 378 l 276 378 q 369 192 300 260 q 539 125 439 125 q 747 211 658 125 l 747 38 q 539 -19 649 -19 q 263 90 375 -19 q 122 378 151 200 l 35 378 z "},"™":{"ha":968,"x_min":43,"x_max":926,"o":"m 513 775 l 479 486 l 394 486 l 461 996 l 661 667 l 861 996 l 926 486 l 842 486 l 810 775 l 661 531 l 513 775 m 43 897 l 43 972 l 383 972 l 383 897 l 254 897 l 254 486 l 172 486 l 172 897 l 43 897 z "},"⅐":{"ha":1225,"x_min":39,"x_max":1188,"o":"m 810 972 l 931 972 l 208 0 l 88 0 l 810 972 m 39 828 l 39 921 l 271 974 l 271 381 l 174 381 l 174 865 l 39 828 m 753 490 l 753 583 l 1188 583 l 908 0 l 803 0 l 1042 490 l 753 490 z "},"⅑":{"ha":1144,"x_min":39,"x_max":1117,"o":"m 806 972 l 928 972 l 206 0 l 83 0 l 806 972 m 39 828 l 39 921 l 271 974 l 271 381 l 174 381 l 174 865 l 39 828 m 986 301 q 1003 318 986 301 q 1019 389 1019 335 q 986 476 1019 443 q 903 510 953 510 q 819 476 853 510 q 785 389 785 442 q 819 301 785 335 q 903 267 853 267 q 986 301 953 267 m 883 4 l 757 4 l 924 210 q 864 200 904 200 q 741 253 793 200 q 689 389 689 307 q 750 540 689 483 q 903 597 811 597 q 1056 540 994 597 q 1117 389 1117 483 q 1067 251 1117 319 l 883 4 z "},"⅒":{"ha":1572,"x_min":39,"x_max":1529,"o":"m 806 972 l 928 972 l 206 0 l 83 0 l 806 972 m 39 828 l 39 921 l 271 974 l 271 381 l 174 381 l 174 865 l 39 828 m 713 447 l 713 542 l 944 594 l 944 1 l 847 1 l 847 486 l 713 447 m 1208 445 q 1190 416 1208 445 q 1172 292 1172 386 q 1208 138 1172 197 q 1303 79 1243 79 q 1398 138 1363 79 q 1433 292 1433 197 q 1398 445 1433 386 q 1303 504 1363 504 q 1208 445 1243 504 m 1139 74 q 1107 115 1139 74 q 1075 292 1075 157 q 1139 510 1075 426 q 1303 593 1203 593 q 1467 510 1404 593 q 1529 292 1529 428 q 1467 73 1529 156 q 1303 -10 1404 -10 q 1139 74 1203 -10 z "},"⅓":{"ha":1114,"x_min":39,"x_max":1078,"o":"m 806 972 l 928 972 l 206 0 l 83 0 l 806 972 m 39 828 l 39 921 l 271 974 l 271 381 l 174 381 l 174 865 l 39 828 m 1023 35 q 995 12 1023 35 q 878 -11 968 -11 q 732 41 788 -11 q 676 167 676 93 l 775 167 q 805 100 775 125 q 881 75 835 75 q 953 99 926 75 q 979 167 979 124 q 944 238 979 213 q 849 264 908 264 l 849 339 q 931 365 900 339 q 963 431 963 392 q 942 488 963 467 q 883 510 922 510 q 820 486 846 510 q 794 428 794 463 l 701 428 q 752 547 701 500 q 883 593 803 593 q 1013 547 965 593 q 1061 435 1061 501 q 960 306 1061 347 q 1078 156 1078 268 q 1023 35 1078 81 z "},"⅔":{"ha":1294,"x_min":42,"x_max":1258,"o":"m 993 972 l 1114 972 l 392 0 l 271 0 l 993 972 m 42 392 l 311 676 q 378 806 378 747 q 353 870 378 843 q 283 897 328 897 q 202 863 233 897 q 171 769 171 828 l 72 769 q 130 925 72 864 q 285 986 188 986 q 428 931 378 986 q 479 804 479 875 q 399 644 479 722 l 233 483 l 486 483 l 486 392 l 42 392 m 1203 35 q 1176 12 1203 35 q 1058 -11 1149 -11 q 912 41 968 -11 q 856 167 856 93 l 956 167 q 985 100 956 125 q 1060 75 1014 75 q 1132 99 1106 75 q 1158 167 1158 124 q 1123 238 1158 213 q 1028 264 1088 264 l 1028 339 q 1110 365 1079 339 q 1142 431 1142 392 q 1122 488 1142 467 q 1063 510 1101 510 q 999 486 1025 510 q 974 428 974 463 l 881 428 q 931 547 881 500 q 1063 593 982 593 q 1193 547 1144 593 q 1242 435 1242 501 q 1139 306 1242 347 q 1258 156 1258 268 q 1203 35 1258 81 z "},"⅕":{"ha":1099,"x_min":39,"x_max":1061,"o":"m 806 972 l 928 972 l 206 0 l 83 0 l 806 972 m 39 828 l 39 921 l 271 974 l 271 381 l 174 381 l 174 865 l 39 828 m 1061 186 q 998 40 1061 92 q 844 -12 935 -12 q 628 92 711 -12 l 685 164 q 752 103 713 128 q 832 79 792 79 q 923 110 890 79 q 956 193 956 140 q 920 275 956 244 q 832 306 885 306 q 678 258 756 306 l 756 581 l 1056 581 l 1056 494 l 831 494 l 793 360 q 886 382 836 382 q 1010 327 960 382 q 1061 186 1061 272 z "},"⅖":{"ha":1283,"x_min":42,"x_max":1242,"o":"m 993 972 l 1114 972 l 392 0 l 271 0 l 993 972 m 42 392 l 311 676 q 378 806 378 747 q 353 870 378 843 q 283 897 328 897 q 202 863 233 897 q 171 769 171 828 l 72 769 q 130 925 72 864 q 285 986 188 986 q 428 931 378 986 q 479 804 479 875 q 399 644 479 722 l 233 483 l 486 483 l 486 392 l 42 392 m 1242 186 q 1178 40 1242 92 q 1025 -12 1115 -12 q 807 92 890 -12 l 865 164 q 933 103 893 128 q 1013 79 972 79 q 1103 110 1071 79 q 1136 193 1136 140 q 1101 275 1136 244 q 1013 306 1065 306 q 858 258 936 306 l 936 581 l 1236 581 l 1236 494 l 1010 494 l 972 360 q 1067 382 1011 382 q 1191 327 1140 382 q 1242 186 1242 272 z "},"⅗":{"ha":1210,"x_min":38,"x_max":1165,"o":"m 919 972 l 1042 972 l 319 0 l 197 0 l 919 972 m 385 424 q 357 401 385 424 q 239 378 329 378 q 93 430 149 378 q 38 556 38 482 l 136 556 q 166 489 136 514 q 242 464 196 464 q 314 488 288 464 q 340 556 340 513 q 305 627 340 601 q 210 653 269 653 l 210 728 q 292 754 261 728 q 324 819 324 781 q 303 877 324 856 q 244 899 283 899 q 181 875 207 899 q 156 817 156 851 l 63 817 q 113 935 63 889 q 244 982 164 982 q 375 936 326 982 q 424 824 424 890 q 321 694 424 736 q 440 544 440 657 q 385 424 440 469 m 1165 186 q 1102 40 1165 92 q 949 -12 1039 -12 q 731 92 814 -12 l 789 164 q 856 103 817 128 q 936 79 896 79 q 1027 110 994 79 q 1060 193 1060 140 q 1024 275 1060 244 q 936 306 989 306 q 781 258 858 306 l 860 581 l 1160 581 l 1160 494 l 933 494 l 897 360 q 990 382 940 382 q 1115 327 1064 382 q 1165 186 1165 272 z "},"⅘":{"ha":1286,"x_min":38,"x_max":1244,"o":"m 332 578 l 332 797 l 181 578 l 332 578 m 426 500 l 426 389 l 325 389 l 325 500 l 38 500 l 367 972 l 426 972 l 426 586 l 518 586 l 518 500 l 426 500 m 983 972 l 1104 972 l 382 0 l 261 0 l 983 972 m 1244 186 q 1181 40 1244 92 q 1028 -12 1118 -12 q 811 92 894 -12 l 868 163 q 935 103 896 126 q 1015 79 975 79 q 1106 110 1074 79 q 1139 193 1139 140 q 1103 275 1139 244 q 1015 306 1068 306 q 861 258 939 306 l 939 581 l 1239 581 l 1239 494 l 1014 494 l 976 360 q 1069 381 1017 381 q 1194 326 1144 381 q 1244 186 1244 272 z "},"⅙":{"ha":1096,"x_min":39,"x_max":1061,"o":"m 817 972 l 939 972 l 217 0 l 94 0 l 817 972 m 39 828 l 39 921 l 271 974 l 271 381 l 174 381 l 174 865 l 39 828 m 728 194 q 761 108 728 142 q 846 74 794 74 q 931 108 897 74 q 964 194 964 142 q 930 283 964 249 q 846 317 896 317 q 762 283 796 317 q 728 194 728 249 m 867 579 l 992 579 l 825 374 q 885 383 844 383 q 1008 329 956 383 q 1061 194 1061 275 q 999 43 1061 100 q 846 -14 938 -14 q 693 43 754 -14 q 632 194 632 100 q 682 332 632 264 l 867 579 z "},"⅚":{"ha":1231,"x_min":42,"x_max":1194,"o":"m 961 972 l 1083 972 l 361 0 l 239 0 l 961 972 m 475 575 q 412 428 475 481 q 258 376 349 376 q 42 481 125 376 l 100 553 q 167 492 128 517 q 247 468 207 468 q 338 499 306 468 q 369 582 369 529 q 335 664 369 633 q 247 694 300 694 q 92 647 169 694 l 169 969 l 469 969 l 469 883 l 244 883 l 207 749 q 300 771 250 771 q 424 716 374 771 q 475 575 475 661 m 897 283 q 881 266 897 283 q 864 194 864 249 q 897 107 864 140 q 981 74 931 74 q 1065 108 1031 74 q 1099 194 1099 142 q 1065 283 1099 249 q 981 317 1031 317 q 897 283 931 317 m 1001 579 l 1126 579 l 960 374 q 1019 383 979 383 q 1142 330 1090 383 q 1194 194 1194 276 q 1133 43 1194 100 q 981 -14 1072 -14 q 828 43 889 -14 q 767 194 767 100 q 817 332 767 264 l 1001 579 z "},"⅛":{"ha":1128,"x_min":39,"x_max":1086,"o":"m 817 972 l 939 972 l 217 0 l 94 0 l 817 972 m 39 828 l 39 921 l 271 974 l 271 381 l 174 381 l 174 865 l 39 828 m 714 443 q 765 551 714 508 q 890 594 817 594 q 1015 551 964 594 q 1065 443 1065 508 q 981 310 1065 350 q 1086 158 1086 265 q 1029 38 1086 86 q 890 -11 972 -11 q 751 38 808 -11 q 693 158 693 86 q 800 310 693 265 q 714 443 714 349 m 808 433 q 832 374 808 397 q 890 350 856 350 q 949 374 925 350 q 972 433 972 397 q 949 493 972 471 q 890 515 926 515 q 831 493 854 515 q 808 433 808 471 m 790 172 q 819 99 790 126 q 890 72 849 72 q 960 99 932 72 q 989 172 989 126 q 960 242 989 214 q 890 269 931 269 q 820 241 850 269 q 790 172 790 213 z "},"⅜":{"ha":1235,"x_min":38,"x_max":1193,"o":"m 924 972 l 1044 972 l 322 0 l 201 0 l 924 972 m 385 424 q 357 401 385 424 q 239 378 329 378 q 93 430 149 378 q 38 556 38 482 l 136 556 q 166 489 136 514 q 242 464 196 464 q 314 488 288 464 q 340 556 340 513 q 305 627 340 601 q 210 653 269 653 l 210 728 q 292 754 261 728 q 324 819 324 781 q 303 877 324 856 q 244 899 283 899 q 181 875 207 899 q 156 817 156 851 l 63 817 q 113 935 63 889 q 244 982 164 982 q 375 936 326 982 q 424 824 424 890 q 321 694 424 736 q 440 544 440 657 q 385 424 440 469 m 821 443 q 872 551 821 508 q 997 594 924 594 q 1122 551 1071 594 q 1172 443 1172 508 q 1088 310 1172 350 q 1193 158 1193 265 q 1136 38 1193 86 q 997 -11 1079 -11 q 858 38 915 -11 q 800 158 800 86 q 907 310 800 265 q 821 443 821 349 m 915 433 q 939 374 915 397 q 997 350 963 350 q 1054 374 1031 350 q 1078 433 1078 397 q 1056 493 1078 471 q 997 515 1033 515 q 938 493 961 515 q 915 433 915 471 m 897 172 q 926 99 897 126 q 997 72 956 72 q 1067 99 1039 72 q 1096 172 1096 126 q 1067 242 1096 214 q 997 269 1038 269 q 927 241 957 269 q 897 172 897 213 z "},"⅝":{"ha":1274,"x_min":39,"x_max":1232,"o":"m 961 972 l 1083 972 l 361 0 l 239 0 l 961 972 m 472 575 q 409 428 472 481 q 256 376 346 376 q 39 481 122 376 l 96 553 q 163 492 124 517 q 243 468 203 468 q 334 499 301 468 q 367 582 367 529 q 331 664 367 633 q 243 694 296 694 q 89 647 167 694 l 167 969 l 467 969 l 467 883 l 240 883 l 204 749 q 297 771 247 771 q 422 716 371 771 q 472 575 472 661 m 860 443 q 910 551 860 508 q 1035 594 961 594 q 1160 551 1108 594 q 1211 443 1211 508 q 1125 310 1211 349 q 1232 158 1232 265 q 1174 38 1232 86 q 1035 -11 1117 -11 q 896 38 953 -11 q 839 158 839 86 q 944 310 839 265 q 860 443 860 350 m 953 433 q 976 374 953 397 q 1035 350 1000 350 q 1093 374 1069 350 q 1117 433 1117 397 q 1094 493 1117 471 q 1035 515 1071 515 q 976 493 999 515 q 953 433 953 471 m 936 172 q 965 99 936 126 q 1035 72 993 72 q 1106 99 1076 72 q 1135 172 1135 126 q 1105 241 1135 213 q 1035 269 1075 269 q 965 242 994 269 q 936 172 936 214 z "},"⅞":{"ha":1121,"x_min":38,"x_max":1079,"o":"m 806 972 l 928 972 l 206 0 l 83 0 l 806 972 m 38 879 l 38 972 l 474 972 l 193 389 l 89 389 l 328 879 l 38 879 m 707 443 q 758 551 707 508 q 882 594 808 594 q 1007 551 956 594 q 1058 443 1058 508 q 972 310 1058 349 q 1079 158 1079 265 q 1022 38 1079 86 q 882 -11 964 -11 q 743 38 800 -11 q 686 158 686 86 q 792 310 686 265 q 707 443 707 350 m 800 433 q 824 374 800 397 q 882 350 847 350 q 940 374 917 350 q 964 433 964 397 q 941 493 964 471 q 882 515 918 515 q 823 493 846 515 q 800 433 800 471 m 783 172 q 812 99 783 126 q 882 72 840 72 q 953 99 924 72 q 982 172 982 126 q 952 241 982 213 q 882 269 922 269 q 813 242 842 269 q 783 172 783 214 z "},"−":{"ha":821,"x_min":90,"x_max":731,"o":"m 90 263 l 90 397 l 731 397 l 731 263 l 90 263 z "},"∙":{"ha":429,"x_min":117,"x_max":313,"o":"m 144 523 q 131 537 144 523 q 117 592 117 551 q 144 660 117 632 q 214 689 172 689 q 284 660 256 689 q 313 592 313 632 q 284 523 313 551 q 214 494 256 494 q 144 523 172 494 z "},"０":{"ha":833,"x_min":38,"x_max":794,"o":"m 259 742 q 230 693 259 742 q 200 486 200 644 q 259 230 200 328 q 417 132 318 132 q 574 230 515 132 q 633 486 633 328 q 574 742 633 644 q 417 840 515 840 q 259 742 318 840 m 142 123 q 90 192 142 123 q 38 486 38 261 q 142 849 38 711 q 417 988 247 988 q 691 849 588 988 q 794 486 794 711 q 691 123 794 261 q 417 -15 588 -15 q 142 123 247 -15 z "},"１":{"ha":833,"x_min":156,"x_max":543,"o":"m 156 744 l 156 900 l 543 988 l 543 0 l 382 0 l 382 807 l 156 744 z "},"２":{"ha":833,"x_min":29,"x_max":771,"o":"m 29 0 l 478 474 q 589 689 589 593 q 547 796 589 750 q 431 842 506 842 q 295 783 347 842 q 243 628 243 725 l 81 628 q 176 888 81 786 q 433 989 271 989 q 617 941 540 989 q 726 826 693 893 q 758 686 758 760 q 625 422 758 549 l 347 153 l 771 153 l 771 0 l 29 0 z "},"３":{"ha":833,"x_min":89,"x_max":760,"o":"m 425 -17 q 181 69 274 -17 q 89 278 89 154 l 254 278 q 304 167 254 210 q 429 125 354 125 q 549 165 504 125 q 594 278 594 206 q 535 399 594 356 q 376 442 476 442 l 376 564 q 515 608 463 564 q 567 717 567 653 q 532 813 567 776 q 433 849 497 849 q 328 810 371 849 q 286 714 286 772 l 131 714 q 215 911 131 835 q 433 988 300 988 q 651 912 569 988 q 732 725 732 836 q 688 597 732 653 q 565 508 643 540 q 760 261 760 446 q 667 60 760 136 q 425 -17 575 -17 z "},"４":{"ha":833,"x_min":22,"x_max":799,"o":"m 494 317 l 494 678 l 253 317 l 494 317 m 653 186 l 653 0 l 483 0 l 483 186 l 22 186 l 553 972 l 653 972 l 653 328 l 799 328 l 799 186 l 653 186 z "},"５":{"ha":833,"x_min":47,"x_max":772,"o":"m 772 317 q 667 71 772 157 q 411 -15 563 -15 q 47 157 183 -15 l 144 275 q 256 176 189 215 q 389 138 322 138 q 541 188 486 138 q 596 326 596 238 q 536 463 596 413 q 389 514 476 514 q 131 436 256 514 l 261 972 l 761 972 l 761 828 l 386 828 l 322 604 q 479 640 393 640 q 688 551 603 640 q 772 317 772 461 z "},"６":{"ha":833,"x_min":60,"x_max":772,"o":"m 276 474 q 248 445 276 474 q 219 328 219 417 q 276 183 219 239 q 417 128 332 128 q 557 183 501 128 q 613 328 613 239 q 557 474 613 417 q 417 532 501 532 q 276 474 332 532 m 450 971 l 658 971 l 379 626 q 481 644 417 644 q 685 554 599 644 q 772 328 772 464 q 672 76 772 169 q 417 -17 571 -17 q 161 77 263 -17 q 60 328 60 171 q 142 557 60 449 l 450 971 z "},"７":{"ha":833,"x_min":69,"x_max":796,"o":"m 69 818 l 69 972 l 796 972 l 328 0 l 153 0 l 550 818 l 69 818 z "},"８":{"ha":833,"x_min":97,"x_max":750,"o":"m 131 738 q 215 918 131 847 q 424 989 300 989 q 632 918 547 989 q 717 738 717 847 q 572 517 717 582 q 701 420 653 485 q 750 264 750 356 q 655 64 750 144 q 424 -17 560 -17 q 192 64 288 -17 q 97 264 97 144 q 146 420 97 356 q 275 517 194 485 q 131 738 131 582 m 288 719 q 327 622 288 660 q 424 583 367 583 q 520 622 481 583 q 560 719 560 660 q 522 820 560 781 q 424 860 483 860 q 326 820 364 860 q 288 719 288 781 m 258 286 q 307 166 258 210 q 424 122 356 122 q 540 166 492 122 q 589 286 589 210 q 539 402 589 354 q 424 450 489 450 q 308 402 358 450 q 258 286 258 354 z "},"９":{"ha":833,"x_min":60,"x_max":772,"o":"m 557 498 q 585 527 557 498 q 613 644 613 556 q 557 789 613 733 q 417 844 501 844 q 276 789 332 844 q 219 644 219 733 q 276 498 219 556 q 417 440 332 440 q 557 498 501 440 m 382 1 l 174 1 l 451 346 q 353 328 415 328 q 147 418 235 328 q 60 644 60 508 q 161 895 60 801 q 417 989 263 989 q 672 896 571 989 q 772 644 772 803 q 692 415 772 522 l 382 1 z "}}}
